<svg width="32" height="32" viewBox="0 0 32 32" fill="none" xmlns="http://www.w3.org/2000/svg">
<path fill-rule="evenodd" clip-rule="evenodd" d="M30.6666 25.3333C30.6666 23.5917 29.5536 22.11 28 21.5609V10.439C29.5536 9.88993 30.6666 8.40828 30.6666 6.66666C30.6666 4.45752 28.8758 2.66666 26.6666 2.66666C24.925 2.66666 23.4434 3.77973 22.8943 5.33332H9.1057C8.55659 3.77973 7.07494 2.66666 5.33331 2.66666C3.12417 2.66666 1.33331 4.45752 1.33331 6.66666C1.33331 8.40828 2.44639 9.88993 3.99998 10.439V21.5609C2.44639 22.11 1.33331 23.5917 1.33331 25.3333C1.33331 27.5425 3.12417 29.3333 5.33331 29.3333C7.07494 29.3333 8.55659 28.2202 9.1057 26.6667H22.8943C23.4434 28.2202 24.925 29.3333 26.6666 29.3333C28.8758 29.3333 30.6666 27.5425 30.6666 25.3333ZM25.3333 10.439V21.5609C24.1968 21.9626 23.296 22.8634 22.8943 24H9.1057C8.70399 22.8634 7.8032 21.9626 6.66665 21.5609V10.439C7.8032 10.0373 8.70399 9.13654 9.1057 7.99999H22.8943C23.296 9.13654 24.1968 10.0373 25.3333 10.439ZM5.33331 7.99999C6.06969 7.99999 6.66665 7.40304 6.66665 6.66666C6.66665 5.93028 6.06969 5.33332 5.33331 5.33332C4.59693 5.33332 3.99998 5.93028 3.99998 6.66666C3.99998 7.40304 4.59693 7.99999 5.33331 7.99999ZM28 6.66666C28 7.40304 27.403 7.99999 26.6666 7.99999C25.9303 7.99999 25.3333 7.40304 25.3333 6.66666C25.3333 5.93028 25.9303 5.33332 26.6666 5.33332C27.403 5.33332 28 5.93028 28 6.66666ZM5.33331 26.6667C6.06969 26.6667 6.66665 26.0697 6.66665 25.3333C6.66665 24.5969 6.06969 24 5.33331 24C4.59693 24 3.99998 24.5969 3.99998 25.3333C3.99998 26.0697 4.59693 26.6667 5.33331 26.6667ZM28 25.3333C28 26.0697 27.403 26.6667 26.6666 26.6667C25.9303 26.6667 25.3333 26.0697 25.3333 25.3333C25.3333 24.5969 25.9303 24 26.6666 24C27.403 24 28 24.5969 28 25.3333Z" fill="black"/>
<path fill-rule="evenodd" clip-rule="evenodd" d="M11.0404 12.6262L23.6262 12.6262V14.0405L11.0404 14.0405L12.8333 15.8333L11.8333 16.8334L8.33325 13.3333L11.8333 9.83334L12.8333 10.8333L11.0404 12.6262Z" fill="black"/>
<path fill-rule="evenodd" clip-rule="evenodd" d="M21.6261 20.7071L9.04033 20.7071V19.2929L21.6261 19.2929L19.8332 17.5L20.8332 16.5L24.3333 20L20.8332 23.5L19.8332 22.5L21.6261 20.7071Z" fill="black"/>
</svg>
