<?xml version="1.0" encoding="UTF-8" standalone="no" ?>
<!DOCTYPE svg PUBLIC "-//W3C//DTD SVG 1.1//EN" "http://www.w3.org/Graphics/SVG/1.1/DTD/svg11.dtd">
<svg xmlns="http://www.w3.org/2000/svg" xmlns:xlink="http://www.w3.org/1999/xlink" version="1.1" width="640" height="640" viewBox="0 0 640 640" xml:space="preserve">
<desc>Created with Fabric.js 5.3.0</desc>
<defs>
</defs>
<g transform="matrix(5.8674195202 0 0 5.8674195202 339.0405381635 591.2141545547)" id="5h0aQdpNVdQlCGYb4gnE6"  >
<path style="stroke: none; stroke-width: 1; stroke-dasharray: none; stroke-linecap: butt; stroke-dashoffset: 0; stroke-linejoin: miter; stroke-miterlimit: 4; fill: rgb(0,0,0); fill-rule: nonzero; opacity: 1;" vector-effect="non-scaling-stroke"  transform=" translate(-47.7470472893, -4.0374320537)" d="M 90.3577 4.34937 C 90.5506 4.15182 90.5469 3.83526 90.3494 3.64231 L 87.1302 0.497984 C 86.9326 0.305032 86.6161 0.308757 86.4231 0.506302 C 86.2302 0.703848 86.2339 1.02041 86.4314 1.21336 L 89.2929 4.00832 L 86.498 6.86982 C 86.305 7.06737 86.3088 7.38393 86.5063 7.57688 C 86.7038 7.76983 87.0204 7.76611 87.2134 7.56856 L 90.3577 4.34937 Z M 89.9941 3.50003 L 4.99411 4.50003 L 5.00587 5.49997 L 90.0059 4.49997 L 89.9941 3.50003 Z" stroke-linecap="round" />
</g>
<g transform="matrix(1.0768603004 0 0 1.0768603004 71.3147702506 573.2267350256)" id="KYfdqPd6RjoMBreDL-lsX"  >
<path style="stroke: rgb(0,0,0); stroke-width: 5; stroke-dasharray: none; stroke-linecap: butt; stroke-dashoffset: 0; stroke-linejoin: miter; stroke-miterlimit: 4; fill: rgb(255,255,255); fill-rule: nonzero; opacity: 1;" vector-effect="non-scaling-stroke"  transform=" translate(0, 0)" d="M -54.46429 -31.35705 C -54.46429 -44.11883 -44.11883 -54.464290000000005 -31.357049999999997 -54.464290000000005 L 31.357050000000005 -54.464290000000005 L 31.357050000000005 -54.464290000000005 C 44.11883 -54.464290000000005 54.464290000000005 -44.11883 54.464290000000005 -31.357050000000005 L 54.464290000000005 31.357039999999994 L 54.464290000000005 31.357039999999994 C 54.464290000000005 44.11881999999999 44.11883 54.464279999999995 31.357050000000005 54.464279999999995 L -31.357049999999997 54.464279999999995 L -31.357049999999997 54.464279999999995 C -44.118829999999996 54.464279999999995 -54.46429 44.11882 -54.46429 31.357039999999994 z" stroke-linecap="round" />
</g>
<g transform="matrix(5.931006893 0 0 5.931006893 71.8985001382 574.0979448626)" id="UxepFpHtuKZyAdTTaCFEc"  >
<path style="stroke: rgb(255,255,255); stroke-width: 1; stroke-dasharray: none; stroke-linecap: butt; stroke-dashoffset: 0; stroke-linejoin: miter; stroke-miterlimit: 4; fill: rgb(0,0,0); fill-rule: evenodd; opacity: 1;" vector-effect="non-scaling-stroke"  transform=" translate(-8, -8)" d="M 10 2 C 8.69378 2 7.58254 2.83481 7.17071 4 L 0 4 L 0 6 L 7.17071 6 C 7.58254 7.16519 8.69378 8 10 8 C 11.6569 8 13 6.65685 13 5 C 13 3.34315 11.6569 2 10 2 Z M 5 8 C 3.69378 8 2.58254 8.83481 2.17071 10 L 0 10 L 0 12 L 2.17071 12 C 2.58254 13.1652 3.69378 14 5 14 C 6.65685 14 8 12.6569 8 11 C 8 9.34315 6.65685 8 5 8 Z M 9 10 L 16 10 L 16 12 L 9 12 L 9 10 Z M 6 11 C 6 11.5523 5.55228 12 5 12 C 4.44772 12 4 11.5523 4 11 C 4 10.4477 4.44772 10 5 10 C 5.55228 10 6 10.4477 6 11 Z M 14 4 L 16 4 L 16 6 L 14 6 L 14 4 Z M 11 5 C 11 5.55228 10.5523 6 10 6 C 9.44771 6 9 5.55228 9 5 C 9 4.44772 9.44771 4 10 4 C 10.5523 4 11 4.44772 11 5 Z" stroke-linecap="round" />
</g>
<g transform="matrix(5.3649721161 0 0 5.3649721161 47.3504253904 284.0656317002)" id="MHtBcFCLYG7dbpihPqn5Q"  >
<path style="stroke: none; stroke-width: 1; stroke-dasharray: none; stroke-linecap: butt; stroke-dashoffset: 0; stroke-linejoin: miter; stroke-miterlimit: 4; fill: rgb(0,0,0); fill-rule: nonzero; opacity: 1;" vector-effect="non-scaling-stroke"  transform=" translate(-8.49999625, -43.249999875)" d="M 8.85355 0.646447 C 8.65829 0.451184 8.34171 0.451184 8.14645 0.646447 L 4.96447 3.82843 C 4.7692 4.02369 4.7692 4.34027 4.96447 4.53553 C 5.15973 4.7308 5.47631 4.7308 5.67157 4.53553 L 8.5 1.70711 L 11.3284 4.53553 C 11.5237 4.7308 11.8403 4.7308 12.0355 4.53553 C 12.2308 4.34027 12.2308 4.02369 12.0355 3.82843 L 8.85355 0.646447 Z M 8 1 L 8 86 L 9 86 L 9 1 L 8 1 Z" stroke-linecap="round" />
</g>
<g transform="matrix(3.1435736952 0 0 3.1435736952 47.3504253904 23.7335845598)" id="OmV_Ie_3WH-YBgVv7Y6zi"  >
<path style="stroke: none; stroke-width: 1; stroke-dasharray: none; stroke-linecap: butt; stroke-dashoffset: 0; stroke-linejoin: miter; stroke-miterlimit: 4; fill: rgb(0,0,0); fill-rule: nonzero; opacity: 1;" vector-effect="non-scaling-stroke"  transform=" translate(0, 0)" d="M -6.13636 -7.27273 L -4.1193100000000005 -7.27273 L -0.08522000000000052 -0.4829600000000003 L 0.08522999999999947 -0.4829600000000003 L 4.119369999999999 -7.27273 L 6.136369999999999 -7.27273 L 0.8806899999999995 1.2784000000000004 L 0.8806899999999995 7.2727200000000005 L -0.8806800000000006 7.2727200000000005 L -0.8806800000000006 1.2784000000000004 z" stroke-linecap="round" />
</g>
<g transform="matrix(3.3679163543 0 0 3.3679163543 616.1270057809 588.6945403084)" id="B7wIwLIsm6BvN7bvbAuhv"  >
<path style="stroke: none; stroke-width: 1; stroke-dasharray: none; stroke-linecap: butt; stroke-dashoffset: 0; stroke-linejoin: miter; stroke-miterlimit: 4; fill: rgb(0,0,0); fill-rule: nonzero; opacity: 1;" vector-effect="non-scaling-stroke"  transform=" translate(-6.0044285, -7.7272725)" d="M 2.19762 0.454545 L 5.94762 6.50568 L 6.06126 6.50568 L 9.81126 0.454545 L 11.8851 0.454545 L 7.31126 7.72727 L 11.8851 15 L 9.81126 15 L 6.06126 9.0625 L 5.94762 9.0625 L 2.19762 15 L 0.123757 15 L 4.81126 7.72727 L 0.123757 0.454545 L 2.19762 0.454545 Z" stroke-linecap="round" />
</g>
<g transform="matrix(1 0 0 1 49.7446969744 601.6470207595)" id="2N26uisQkUf21qQBn1zQh"  >
<path style="stroke: rgb(55,144,40); stroke-width: 0; stroke-dasharray: none; stroke-linecap: butt; stroke-dashoffset: 0; stroke-linejoin: miter; stroke-miterlimit: 4; fill: rgb(0,0,0); fill-opacity: 0; fill-rule: nonzero; opacity: 1;" vector-effect="non-scaling-stroke"  transform=" translate(-37.9464223902, -37.9464183389)" d="M 0 16.09931 C 0 7.207909999999998 7.2079 0 16.09931 0 L 59.793549999999996 0 L 59.793549999999996 0 C 68.68495 0 75.89286 7.2079 75.89286 16.09931 L 75.89286 59.79353999999999 L 75.89286 59.79353999999999 C 75.89286 68.68494 68.68496 75.89285 59.793549999999996 75.89285 L 16.099309999999996 75.89285 L 16.099309999999996 75.89285 C 7.207909999999995 75.89285 -3.552713678800501e-15 68.68495 -3.552713678800501e-15 59.79353999999999 z" stroke-linecap="round" />
</g>
</svg>