<svg width="80" height="80" viewBox="0 0 80 80" xmlns="http://www.w3.org/2000/svg" >
 <path id="logo"
     d="m70.7,35.1l0,19.3l-1.8,0c-0.7,0 -1.3,0.6 -1.3,1.3l0,2c0,0.7 0.6,1.3 1.3,1.3l5,0c0.7,0 1.3,-0.6 1.3,-1.3l0,-22.6c0,-0.7 -0.6,-1.3 -1.3,-1.3l-2,0c-0.6,0 -1.2,0.6 -1.2,1.3zm-9.6,0l0,27.4l-1.7,0c-0.7,0 -1.3,0.6 -1.3,1.3l0,2c0,0.7 0.6,1.3 1.3,1.3l5,0c0.7,0 1.3,-0.6 1.3,-1.3l0,-30.7c0,-0.7 -0.6,-1.3 -1.3,-1.3l-2,0c-0.7,0 -1.3,0.6 -1.3,1.3zm-9.6,0l0,35.7l-1.8,0c-0.7,0 -1.3,0.6 -1.3,1.3l0,2c0,0.7 0.6,1.3 1.3,1.3l5,0c0.7,0 1.3,-0.6 1.3,-1.3l0,-39c0,-0.7 -0.6,-1.3 -1.3,-1.3l-2,0c-0.6,0 -1.2,0.6 -1.2,1.3zm-42.3,9.7l0,-19.2l1.8,0c0.7,0 1.3,-0.6 1.3,-1.3l0,-2c0,-0.7 -0.6,-1.3 -1.3,-1.3l-5,0c-0.7,0 -1.3,0.6 -1.3,1.3l0,22.6c0,0.7 0.6,1.3 1.3,1.3l2,0c0.6,-0.1 1.2,-0.7 1.2,-1.4zm9.6,0l0,-27.3l1.8,0c0.7,0 1.3,-0.6 1.3,-1.3l0,-2c0,-0.7 -0.6,-1.3 -1.3,-1.3l-5,0c-0.7,0 -1.3,0.6 -1.3,1.3l0,30.7c0,0.7 0.6,1.3 1.3,1.3l2,0c0.6,-0.1 1.2,-0.7 1.2,-1.4zm9.6,0l0,-35.6l1.8,0c0.7,0 1.3,-0.6 1.3,-1.3l0,-2c0,-0.7 -0.6,-1.3 -1.3,-1.3l-5,0c-0.7,0 -1.3,0.6 -1.3,1.3l0,38.9c0,0.7 0.6,1.3 1.3,1.3l2,0c0.6,0 1.2,-0.6 1.2,-1.3zm6.7,-35.6l19.1,0l0,1.6c0,0.7 0.6,1.3 1.3,1.3l2.2,0c0.7,0 1.3,-0.6 1.3,-1.3l0,-4.9c0,-0.7 -0.6,-1.3 -1.3,-1.3l-22.6,0c-0.7,0 -1.3,0.6 -1.3,1.3l0,2c0,0.7 0.6,1.3 1.3,1.3zm0,9.6l27.4,0l0,1.6c0,0.7 0.6,1.3 1.3,1.3l2,0c0.7,0 1.3,-0.6 1.3,-1.3l0,-5c0,-0.7 -0.6,-1.3 -1.3,-1.3l-30.7,0c-0.7,0 -1.3,0.6 -1.3,1.3l0,2.2c0,0.6 0.6,1.2 1.3,1.2zm0,9.6l35.7,0l0,1.6c0,0.7 0.6,1.3 1.3,1.3l2,0c0.7,0 1.3,-0.6 1.3,-1.3l0,-4.9c0,-0.7 -0.6,-1.3 -1.3,-1.3l-39,0c-0.7,0 -1.3,0.6 -1.3,1.3l0,2c0,0.7 0.6,1.3 1.3,1.3zm9.7,42.3l-19.1,0l0,-1.6c0,-0.7 -0.6,-1.3 -1.3,-1.3l-2.2,0c-0.7,0 -1.3,0.6 -1.3,1.3l0,4.9c0,0.7 0.6,1.3 1.3,1.3l22.6,0c0.7,0 1.3,-0.6 1.3,-1.3l0,-2c0,-0.7 -0.6,-1.3 -1.3,-1.3zm0,-9.6l-27.3,0l0,-1.6c0,-0.7 -0.6,-1.3 -1.3,-1.3l-2,0c-0.7,0 -1.3,0.6 -1.3,1.3l0,5c0,0.7 0.6,1.3 1.3,1.3l30.7,0c0.7,0 1.3,-0.6 1.3,-1.3l0,-2.2c-0.1,-0.6 -0.7,-1.2 -1.4,-1.2zm0,-9.6l-35.6,0l0,-1.6c0,-0.7 -0.6,-1.3 -1.3,-1.3l-2,0c-0.7,0 -1.3,0.6 -1.3,1.3l0,4.9c0,0.7 0.6,1.3 1.3,1.3l38.9,0c0.7,0 1.3,-0.6 1.3,-1.3l0,-2c0,-0.7 -0.6,-1.3 -1.3,-1.3z"
     opacity="1" fill="#539ce0" />
</svg>