<svg width="26" height="22" viewBox="0 0 26 22" fill="none" xmlns="http://www.w3.org/2000/svg">
<path fill-rule="evenodd" clip-rule="evenodd" d="M21.1667 2.83333C22.4554 2.83333 23.5 3.878 23.5 5.16667L23.5 6.33333C24.7887 6.33333 25.8334 7.378 25.8334 8.66667L25.8056 8.91975L23.4953 19.3158C23.4184 20.535 22.4052 21.5 21.1667 21.5H2.50002C1.37244 21.5 0.431667 20.7002 0.214092 19.6369C0.18301 19.485 0.166687 19.3277 0.166687 19.1667V2.83333C0.166687 1.54467 1.21136 0.5 2.50002 0.5H9.50002C10.8067 0.5 11.6384 1.05469 12.4738 2.10866C12.4969 2.13781 12.5532 2.21032 12.6155 2.29065L12.6157 2.29087C12.7037 2.40432 12.8038 2.53329 12.8396 2.57762C12.8758 2.62246 12.9062 2.65955 12.9315 2.6902C13.0341 2.81499 13.0489 2.83308 13.0021 2.83333H21.1667ZM21.1667 5.16667V6.33333H4.83335C3.47232 6.33333 2.86192 7.05837 2.534 8.38714L2.50002 8.54003V2.83333H9.50002C9.94831 2.83333 10.2082 3.00666 10.6452 3.55802C10.6589 3.57534 10.6983 3.62606 10.7473 3.68926L10.7474 3.68937C10.8412 3.81025 10.9703 3.97674 11.0235 4.04263C11.6102 4.76989 12.1559 5.16216 12.9938 5.16665L21.1667 5.16667ZM21.1667 19.1667H2.52848L4.80557 8.91975C4.83326 8.80818 4.85748 8.72448 4.87571 8.66667H23.4716L21.1945 18.9136L21.1667 19.1667Z" fill="black"/>
</svg>
