<svg width="24" height="24" viewBox="0 0 24 24" fill="none" xmlns="http://www.w3.org/2000/svg">
<g id="16 / options">
<path id="icon" fill-rule="evenodd" clip-rule="evenodd" d="M15 3C13.0407 3 11.3738 4.25221 10.7561 6H0V9H10.7561C11.3738 10.7478 13.0407 12 15 12C17.4853 12 19.5 9.98528 19.5 7.5C19.5 5.01472 17.4853 3 15 3ZM7.5 12C5.54067 12 3.87381 13.2522 3.25606 15H0V18H3.25606C3.87381 19.7478 5.54067 21 7.5 21C9.98528 21 12 18.9853 12 16.5C12 14.0147 9.98528 12 7.5 12ZM13.5 15H24V18H13.5V15ZM9 16.5C9 17.3284 8.32843 18 7.5 18C6.67157 18 6 17.3284 6 16.5C6 15.6716 6.67157 15 7.5 15C8.32843 15 9 15.6716 9 16.5ZM21 6H24V9H21V6ZM16.5 7.5C16.5 8.32843 15.8284 9 15 9C14.1716 9 13.5 8.32843 13.5 7.5C13.5 6.67157 14.1716 6 15 6C15.8284 6 16.5 6.67157 16.5 7.5Z" fill="black"/>
</g>
</svg>
