<?xml version="1.0" standalone="no"?>
<!DOCTYPE svg PUBLIC "-//W3C//DTD SVG 20010904//EN"
 "http://www.w3.org/TR/2001/REC-SVG-20010904/DTD/svg10.dtd">
<svg version="1.0" xmlns="http://www.w3.org/2000/svg"
 width="512.000000pt" height="617.000000pt" viewBox="0 0 512.000000 617.000000"
 preserveAspectRatio="xMidYMid meet">

<g transform="translate(0.000000,617.000000) scale(0.100000,-0.100000)"
fill="#000000" stroke="none">
<path d="M1748 5692 l-937 -477 101 -3 102 -3 -52 -34 c-114 -77 -219 -207
-275 -340 -47 -113 -57 -192 -57 -465 l0 -250 -315 0 -315 0 0 -1325 0 -1325
315 0 315 0 0 -390 c0 -310 3 -406 15 -464 50 -241 213 -445 438 -546 155 -69
52 -64 1482 -68 873 -2 1316 1 1371 8 336 44 600 296 660 630 9 52 13 170 14
383 l0 307 255 0 255 0 0 1325 0 1325 -255 0 -255 0 0 304 c0 340 -10 429 -61
552 -53 128 -168 269 -274 337 l-50 32 169 5 170 5 -938 478 c-515 262 -938
477 -939 477 -1 0 -424 -215 -939 -478z m2212 -928 c66 -37 114 -102 129 -177
8 -36 11 -619 9 -1962 l-3 -1910 -21 -45 c-26 -56 -76 -107 -129 -131 -38 -18
-102 -19 -1328 -19 l-1288 0 -48 25 c-27 13 -63 41 -80 62 -66 80 -61 -69 -59
2069 l3 1941 30 48 c39 62 92 105 152 121 38 10 303 12 1313 11 l1265 -2 55
-31z"/>
</g>
</svg>
