<svg id="e1dWAb7iZsX1" xmlns="http://www.w3.org/2000/svg" xmlns:xlink="http://www.w3.org/1999/xlink"
    viewBox="0 0 100 100" shape-rendering="geometricPrecision" text-rendering="geometricPrecision">
    <style>
        <![CDATA[#e1dWAb7iZsX2_tr {animation: e1dWAb7iZsX2_tr__tr 2000ms linear infinite normal forwards}@keyframes e1dWAb7iZsX2_tr__tr { 0% {transform: translate(50.8px,50.400007px) rotate(360deg);animation-timing-function: cubic-bezier(0.645,0.045,0.355,1)} 100% {transform: translate(50.8px,50.400007px) rotate(720deg)}}]]></style>
    <g id="e1dWAb7iZsX2_tr" transform="translate(50.8,50.400007) rotate(360)">
        <path id="e1dWAb7iZsX2"
            d="M69.553107,44.755367L69.553107,63.837288L67.773446,63.837288C67.081356,63.837288,66.488136,64.430508,66.488136,65.122599L66.488136,67.1C66.488136,67.79209,67.081356,68.385311,67.773446,68.385311L72.716949,68.385311C73.40904,68.385311,74.00226,67.79209,74.00226,67.1L74.00226,44.755367C74.00226,44.063277,73.40904,43.470056,72.716949,43.470056L70.739548,43.470056C70.146328,43.470056,69.553107,44.063277,69.553107,44.755367ZM60.061582,44.755367L60.061582,71.845763L58.380791,71.845763C57.688701,71.845763,57.09548,72.438983,57.09548,73.131073L57.09548,75.108475C57.09548,75.800565,57.688701,76.393785,58.380791,76.393785L63.324294,76.393785C64.016384,76.393785,64.609605,75.800565,64.609605,75.108475L64.609605,44.755367C64.609605,44.063277,64.016384,43.470056,63.324294,43.470056L61.346893,43.470056C60.654802,43.470056,60.061582,44.063277,60.061582,44.755367ZM50.570056,44.755367L50.570056,80.051977L48.790395,80.051977C48.098305,80.051977,47.505085,80.645198,47.505085,81.337288L47.505085,83.314689C47.505085,84.00678,48.098305,84.6,48.790395,84.6L53.733898,84.6C54.425989,84.6,55.019209,84.00678,55.019209,83.314689L55.019209,44.755367C55.019209,44.063277,54.425989,43.470056,53.733898,43.470056L51.756497,43.470056C51.163277,43.470056,50.570056,44.063277,50.570056,44.755367ZM8.748023,54.345763L8.748023,35.362712L10.527684,35.362712C11.219774,35.362712,11.812994,34.769492,11.812994,34.077401L11.812994,32.1C11.812994,31.40791,11.219774,30.814689,10.527684,30.814689L5.584181,30.814689C4.89209,30.814689,4.29887,31.40791,4.29887,32.1L4.29887,54.444633C4.29887,55.136723,4.89209,55.729944,5.584181,55.729944L7.561582,55.729944C8.154802,55.631073,8.748023,55.037853,8.748023,54.345763ZM18.239548,54.345763L18.239548,27.354237L20.019209,27.354237C20.711299,27.354237,21.30452,26.761017,21.30452,26.068927L21.30452,24.091525C21.30452,23.399435,20.711299,22.806215,20.019209,22.806215L15.075706,22.806215C14.383616,22.806215,13.790395,23.399435,13.790395,24.091525L13.790395,54.444633C13.790395,55.136723,14.383616,55.729944,15.075706,55.729944L17.053107,55.729944C17.646328,55.631073,18.239548,55.037853,18.239548,54.345763ZM27.731073,54.345763L27.731073,19.148023L29.510734,19.148023C30.202825,19.148023,30.796045,18.554802,30.796045,17.862712L30.796045,15.885311C30.796045,15.19322,30.202825,14.6,29.510734,14.6L24.567232,14.6C23.875141,14.6,23.281921,15.19322,23.281921,15.885311L23.281921,54.345763C23.281921,55.037853,23.875141,55.631073,24.567232,55.631073L26.544633,55.631073C27.137853,55.631073,27.731073,55.037853,27.731073,54.345763ZM34.355367,19.148023L53.239548,19.148023L53.239548,20.729944C53.239548,21.422034,53.832768,22.015254,54.524859,22.015254L56.7,22.015254C57.39209,22.015254,57.985311,21.422034,57.985311,20.729944L57.985311,15.885311C57.985311,15.19322,57.39209,14.6,56.7,14.6L34.355367,14.6C33.663277,14.6,33.070056,15.19322,33.070056,15.885311L33.070056,17.862712C33.070056,18.554802,33.663277,19.148023,34.355367,19.148023ZM34.355367,28.639548L61.445763,28.639548L61.445763,30.221469C61.445763,30.913559,62.038983,31.50678,62.731073,31.50678L64.708475,31.50678C65.400565,31.50678,65.993785,30.913559,65.993785,30.221469L65.993785,25.277966C65.993785,24.585876,65.400565,23.992655,64.708475,23.992655L34.355367,23.992655C33.663277,23.992655,33.070056,24.585876,33.070056,25.277966L33.070056,27.453107C33.070056,28.046328,33.663277,28.639548,34.355367,28.639548ZM34.355367,38.131073L69.651977,38.131073L69.651977,39.712994C69.651977,40.405085,70.245198,40.998305,70.937288,40.998305L72.914689,40.998305C73.60678,40.998305,74.2,40.405085,74.2,39.712994L74.2,34.868362C74.2,34.176271,73.60678,33.583051,72.914689,33.583051L34.355367,33.583051C33.663277,33.583051,33.070056,34.176271,33.070056,34.868362L33.070056,36.845763C33.070056,37.537853,33.663277,38.131073,34.355367,38.131073ZM43.945763,79.953107L25.061582,79.953107L25.061582,78.371186C25.061582,77.679096,24.468362,77.085876,23.776271,77.085876L21.60113,77.085876C20.90904,77.085876,20.315819,77.679096,20.315819,78.371186L20.315819,83.215819C20.315819,83.90791,20.90904,84.50113,21.60113,84.50113L43.945763,84.50113C44.637853,84.50113,45.231073,83.90791,45.231073,83.215819L45.231073,81.238418C45.231073,80.546328,44.637853,79.953107,43.945763,79.953107ZM43.945763,70.461582L16.954237,70.461582L16.954237,68.879661C16.954237,68.187571,16.361017,67.59435,15.668927,67.59435L13.691525,67.59435C12.999435,67.59435,12.406215,68.187571,12.406215,68.879661L12.406215,73.823164C12.406215,74.515254,12.999435,75.108475,13.691525,75.108475L44.044633,75.108475C44.736723,75.108475,45.329944,74.515254,45.329944,73.823164L45.329944,71.648023C45.231073,71.054802,44.637853,70.461582,43.945763,70.461582ZM43.945763,60.970056L8.748023,60.970056L8.748023,59.388136C8.748023,58.696045,8.154802,58.102825,7.462712,58.102825L5.485311,58.102825C4.79322,58.102825,4.2,58.696045,4.2,59.388136L4.2,64.232768C4.2,64.924859,4.79322,65.518079,5.485311,65.518079L43.945763,65.518079C44.637853,65.518079,45.231073,64.924859,45.231073,64.232768L45.231073,62.255367C45.231073,61.563277,44.637853,60.970056,43.945763,60.970056Z"
            transform="translate(-40,-50.000007)" fill="rgb(83,156,224)" stroke="none"
            stroke-width="1" />
    </g>
</svg>