<svg width="22" height="22" viewBox="0 0 22 22" fill="none" xmlns="http://www.w3.org/2000/svg">
<path fill-rule="evenodd" clip-rule="evenodd" d="M19.4259 6.66666H15.3334V2.57406C15.3334 1.24449 14.4515 0.166656 13.3637 0.166656H8.63638C7.54855 0.166656 6.66669 1.24449 6.66669 2.57406V6.66666H2.57409C1.24452 6.66666 0.166687 7.54852 0.166687 8.63635V13.3636C0.166687 14.4515 1.24452 15.3333 2.57409 15.3333H6.66669V19.4259C6.66669 20.7555 7.54855 21.8333 8.63638 21.8333H13.3637C14.4515 21.8333 15.3334 20.7555 15.3334 19.4259V15.3333H19.4259C20.7555 15.3333 21.8334 14.4515 21.8334 13.3636V8.63635C21.8334 7.54852 20.7555 6.66666 19.4259 6.66666ZM19.6667 8.83332H13.1667V2.33332H8.83335V8.83332H2.33335V13.1667H8.83335V19.6667H13.1667V13.1667H19.6667V8.83332Z" fill="black"/>
</svg>
