<svg width="24" height="20" viewBox="0 0 24 20" fill="none" xmlns="http://www.w3.org/2000/svg">
<path fill-rule="evenodd" clip-rule="evenodd" d="M23.9166 4.58333C23.9166 3.38672 22.9466 2.41667 21.75 2.41667H12.0019C12.0454 2.41643 12.0316 2.39964 11.9363 2.28376L11.9363 2.28369L11.9358 2.2832C11.9125 2.25484 11.8844 2.22059 11.851 2.17922C11.8178 2.13806 11.7249 2.01833 11.6431 1.91299C11.5852 1.8383 11.5328 1.77085 11.5114 1.74376C10.7357 0.765072 9.96332 0.25 8.74998 0.25H2.24998C1.05336 0.25 0.083313 1.22005 0.083313 2.41667V17.5833C0.083313 18.78 1.05336 19.75 2.24998 19.75H21.75C22.9466 19.75 23.9166 18.78 23.9166 17.5833V4.58333ZM21.75 4.58333V17.5833H2.24998V2.41667H8.74998C9.16625 2.41667 9.40759 2.57762 9.81338 3.08959C9.82604 3.10557 9.86218 3.15215 9.9073 3.2103L9.90795 3.21115L9.90826 3.21155C9.99534 3.3238 10.1153 3.4784 10.1646 3.53959C10.7094 4.2149 11.2162 4.57915 11.9942 4.58332L21.75 4.58333ZM7.66665 12.1667V10H10.9166V6.75H13.0833V10H16.3333V12.1667H13.0833V15.4167H10.9166V12.1667H7.66665Z" fill="black"/>
</svg>
