<svg width="34" height="11" viewBox="0 0 34 11" fill="none" xmlns="http://www.w3.org/2000/svg">
<path opacity="0.45" d="M0.825284 11V9.44886L4.44957 6.09304C4.75781 5.79474 5.01634 5.52628 5.22514 5.28764C5.43726 5.04901 5.59801 4.81534 5.70739 4.58665C5.81676 4.35464 5.87145 4.1044 5.87145 3.83594C5.87145 3.53764 5.8035 3.28078 5.66761 3.06534C5.53172 2.84659 5.34612 2.67921 5.1108 2.56321C4.87547 2.44389 4.60866 2.38423 4.31037 2.38423C3.99882 2.38423 3.72704 2.44721 3.49503 2.57315C3.26302 2.6991 3.08404 2.87973 2.9581 3.11506C2.83215 3.35038 2.76918 3.63044 2.76918 3.95526H0.725852C0.725852 3.28906 0.876657 2.7107 1.17827 2.22017C1.47988 1.72964 1.90246 1.35014 2.44602 1.08168C2.98958 0.81321 3.616 0.678977 4.32528 0.678977C5.05445 0.678977 5.68916 0.808238 6.2294 1.06676C6.77296 1.32197 7.19555 1.67661 7.49716 2.13068C7.79877 2.58475 7.94957 3.10511 7.94957 3.69176C7.94957 4.07623 7.87334 4.45573 7.72088 4.83026C7.57173 5.20478 7.30492 5.62074 6.92045 6.07812C6.53598 6.5322 5.99408 7.07741 5.29474 7.71378L3.80824 9.17045V9.24006H8.08381V11H0.825284ZM14.0733 0.818182V11H11.9206V2.86151H11.861L9.5293 4.32315V2.41406L12.0499 0.818182H14.0733ZM16.3391 9.21023V7.51491L20.5898 0.818182H22.0515V3.16477H21.1864L18.5067 7.40554V7.48509H24.5472V9.21023H16.3391ZM21.2262 11V8.69318L21.266 7.94247V0.818182H23.2844V11H21.2262ZM25.9815 11V9.44886L29.6058 6.09304C29.9141 5.79474 30.1726 5.52628 30.3814 5.28764C30.5935 5.04901 30.7543 4.81534 30.8636 4.58665C30.973 4.35464 31.0277 4.1044 31.0277 3.83594C31.0277 3.53764 30.9598 3.28078 30.8239 3.06534C30.688 2.84659 30.5024 2.67921 30.267 2.56321C30.0317 2.44389 29.7649 2.38423 29.4666 2.38423C29.1551 2.38423 28.8833 2.44721 28.6513 2.57315C28.4193 2.6991 28.2403 2.87973 28.1143 3.11506C27.9884 3.35038 27.9254 3.63044 27.9254 3.95526H25.8821C25.8821 3.28906 26.0329 2.7107 26.3345 2.22017C26.6361 1.72964 27.0587 1.35014 27.6023 1.08168C28.1458 0.81321 28.7723 0.678977 29.4815 0.678977C30.2107 0.678977 30.8454 0.808238 31.3857 1.06676C31.9292 1.32197 32.3518 1.67661 32.6534 2.13068C32.955 2.58475 33.1058 3.10511 33.1058 3.69176C33.1058 4.07623 33.0296 4.45573 32.8771 4.83026C32.728 5.20478 32.4612 5.62074 32.0767 6.07812C31.6922 6.5322 31.1503 7.07741 30.451 7.71378L28.9645 9.17045V9.24006H33.2401V11H25.9815Z" fill="#0587FF"/>
</svg>
