<svg width="25" height="12" viewBox="0 0 25 12" fill="none" xmlns="http://www.w3.org/2000/svg">
<path d="M0.825284 11V9.44886L4.44957 6.09304C4.75781 5.79474 5.01634 5.52628 5.22514 5.28764C5.43726 5.04901 5.59801 4.81534 5.70739 4.58665C5.81676 4.35464 5.87145 4.1044 5.87145 3.83594C5.87145 3.53764 5.8035 3.28078 5.66761 3.06534C5.53172 2.84659 5.34612 2.67921 5.1108 2.56321C4.87547 2.44389 4.60866 2.38423 4.31037 2.38423C3.99882 2.38423 3.72704 2.44721 3.49503 2.57315C3.26302 2.6991 3.08404 2.87973 2.9581 3.11506C2.83215 3.35038 2.76918 3.63044 2.76918 3.95526H0.725852C0.725852 3.28906 0.876657 2.7107 1.17827 2.22017C1.47988 1.72964 1.90246 1.35014 2.44602 1.08168C2.98958 0.81321 3.616 0.678977 4.32528 0.678977C5.05445 0.678977 5.68916 0.808238 6.2294 1.06676C6.77296 1.32197 7.19555 1.67661 7.49716 2.13068C7.79877 2.58475 7.94957 3.10511 7.94957 3.69176C7.94957 4.07623 7.87334 4.45573 7.72088 4.83026C7.57173 5.20478 7.30492 5.62074 6.92045 6.07812C6.53598 6.5322 5.99408 7.07741 5.29474 7.71378L3.80824 9.17045V9.24006H8.08381V11H0.825284ZM14.0733 0.818182V11H11.9206V2.86151H11.861L9.5293 4.32315V2.41406L12.0499 0.818182H14.0733ZM20.212 11.1392C19.5094 11.1392 18.8829 11.0099 18.3327 10.7514C17.7859 10.4929 17.3517 10.1366 17.0302 9.68253C16.7087 9.22846 16.5413 8.7081 16.5281 8.12145H18.6161C18.6393 8.51586 18.805 8.8357 19.1133 9.08097C19.4215 9.32623 19.7878 9.44886 20.212 9.44886C20.5501 9.44886 20.8484 9.37429 21.1069 9.22514C21.3687 9.07268 21.5726 8.86222 21.7184 8.59375C21.8675 8.32197 21.9421 8.01042 21.9421 7.65909C21.9421 7.30114 21.8659 6.98627 21.7134 6.71449C21.5643 6.44271 21.3571 6.23059 21.092 6.07812C20.8268 5.92566 20.5236 5.84777 20.1822 5.84446C19.8839 5.84446 19.5939 5.90578 19.3121 6.02841C19.0337 6.15104 18.8166 6.31842 18.6609 6.53054L16.7468 6.1875L17.229 0.818182H23.4535V2.57812H19.0039L18.7404 5.12855H18.8001C18.979 4.87666 19.2492 4.66785 19.6104 4.50213C19.9717 4.33641 20.3761 4.25355 20.8235 4.25355C21.4367 4.25355 21.9835 4.39773 22.4641 4.68608C22.9447 4.97443 23.3242 5.3705 23.6026 5.87429C23.881 6.37476 24.0186 6.95147 24.0153 7.6044C24.0186 8.29048 23.8595 8.90033 23.538 9.43395C23.2198 9.96425 22.774 10.3819 22.2006 10.6868C21.6306 10.9884 20.9677 11.1392 20.212 11.1392Z" fill="#04A832"/>
</svg>
