<svg width="26" height="12" viewBox="0 0 26 12" fill="none" xmlns="http://www.w3.org/2000/svg">
<path d="M4.58878 11.1392C3.84635 11.1392 3.18513 11.0116 2.60511 10.7564C2.02841 10.4979 1.57268 10.1432 1.23793 9.69247C0.906487 9.2384 0.735795 8.71473 0.725852 8.12145H2.89347C2.90672 8.37003 2.98793 8.58878 3.13707 8.7777C3.28954 8.9633 3.49171 9.10748 3.74361 9.21023C3.9955 9.31297 4.27888 9.36435 4.59375 9.36435C4.92188 9.36435 5.21188 9.30634 5.46378 9.19034C5.71567 9.07434 5.91288 8.91359 6.0554 8.7081C6.19792 8.5026 6.26918 8.26562 6.26918 7.99716C6.26918 7.72538 6.19295 7.48509 6.04048 7.27628C5.89134 7.06416 5.6759 6.89844 5.39418 6.77912C5.11577 6.6598 4.78433 6.60014 4.39986 6.60014H3.45028V5.01918H4.39986C4.72467 5.01918 5.01136 4.96283 5.25994 4.85014C5.51184 4.73745 5.70739 4.58168 5.84659 4.38281C5.9858 4.18063 6.0554 3.94531 6.0554 3.67685C6.0554 3.42164 5.99408 3.19792 5.87145 3.00568C5.75213 2.81013 5.5831 2.65767 5.36435 2.5483C5.14891 2.43892 4.89702 2.38423 4.60866 2.38423C4.317 2.38423 4.05019 2.43726 3.80824 2.54332C3.56629 2.64607 3.3724 2.79356 3.22656 2.9858C3.08073 3.17803 3.00284 3.40341 2.9929 3.66193H0.929688C0.939631 3.07528 1.10701 2.55824 1.43182 2.1108C1.75663 1.66335 2.19413 1.31368 2.74432 1.06179C3.29782 0.806581 3.92259 0.678977 4.61861 0.678977C5.32126 0.678977 5.93608 0.806581 6.46307 1.06179C6.99006 1.317 7.39938 1.66169 7.69105 2.09588C7.98603 2.52675 8.13187 3.01065 8.12855 3.54758C8.13187 4.11766 7.95455 4.59328 7.59659 4.97443C7.24195 5.35559 6.77959 5.59754 6.20952 5.70028V5.77983C6.95857 5.87595 7.52865 6.13613 7.91974 6.56037C8.31416 6.9813 8.50971 7.50829 8.50639 8.14134C8.50971 8.72135 8.34233 9.23674 8.00426 9.6875C7.66951 10.1383 7.20715 10.4929 6.61719 10.7514C6.02723 11.0099 5.35109 11.1392 4.58878 11.1392ZM10.0538 11V9.44886L13.6781 6.09304C13.9863 5.79474 14.2449 5.52628 14.4537 5.28764C14.6658 5.04901 14.8265 4.81534 14.9359 4.58665C15.0453 4.35464 15.1 4.1044 15.1 3.83594C15.1 3.53764 15.032 3.28078 14.8961 3.06534C14.7602 2.84659 14.5746 2.67921 14.3393 2.56321C14.104 2.44389 13.8372 2.38423 13.5389 2.38423C13.2273 2.38423 12.9556 2.44721 12.7235 2.57315C12.4915 2.6991 12.3126 2.87973 12.1866 3.11506C12.0607 3.35038 11.9977 3.63044 11.9977 3.95526H9.95437C9.95437 3.28906 10.1052 2.7107 10.4068 2.22017C10.7084 1.72964 11.131 1.35014 11.6745 1.08168C12.2181 0.81321 12.8445 0.678977 13.5538 0.678977C14.283 0.678977 14.9177 0.808238 15.4579 1.06676C16.0015 1.32197 16.4241 1.67661 16.7257 2.13068C17.0273 2.58475 17.1781 3.10511 17.1781 3.69176C17.1781 4.07623 17.1019 4.45573 16.9494 4.83026C16.8002 5.20478 16.5334 5.62074 16.149 6.07812C15.7645 6.5322 15.2226 7.07741 14.5233 7.71378L13.0368 9.17045V9.24006H17.3123V11H10.0538ZM19.2749 11L23.4957 2.64773V2.57812H18.5788V0.818182H25.723V2.60298L21.4972 11H19.2749Z" fill="black"/>
</svg>
