<?xml version="1.0" encoding="UTF-8"?>
<!DOCTYPE svg PUBLIC "-//W3C//DTD SVG 1.1//EN" "http://www.w3.org/Graphics/SVG/1.1/DTD/svg11.dtd">
<svg xmlns="http://www.w3.org/2000/svg" version="1.1" width="512px" height="532px" style="shape-rendering:geometricPrecision; text-rendering:geometricPrecision; image-rendering:optimizeQuality; fill-rule:evenodd; clip-rule:evenodd" xmlns:xlink="http://www.w3.org/1999/xlink">
<g><path style="opacity:0.949" fill="#fb0909" d="M 242.5,4.5 C 249.167,4.5 255.833,4.5 262.5,4.5C 261.365,30.8163 260.699,57.1497 260.5,83.5C 253.833,83.5 247.167,83.5 240.5,83.5C 241.149,57.1661 241.816,30.8328 242.5,4.5 Z"/></g>
<g><path style="opacity:0.943" fill="#fc0909" d="M 353.5,27.5 C 359.915,29.1953 365.915,31.862 371.5,35.5C 360.389,59.384 349.056,83.0506 337.5,106.5C 331.554,104.194 325.888,101.361 320.5,98C 331.369,74.4289 342.369,50.9289 353.5,27.5 Z"/></g>
<g><path style="opacity:0.951" fill="#fc0909" d="M 147.5,32.5 C 149.39,32.2965 150.89,32.9632 152,34.5C 165.375,56.0842 178.875,77.5842 192.5,99C 187.229,102.553 181.729,105.719 176,108.5C 161.269,86.9213 147.103,64.9213 133.5,42.5C 138.196,39.1572 142.863,35.8238 147.5,32.5 Z"/></g>
<g><path style="opacity:0.954" fill="#fc0909" d="M 436.5,76.5 C 441.331,81.1629 446.331,85.6629 451.5,90C 433.138,108.695 414.472,127.029 395.5,145C 394.092,145.315 392.759,144.982 391.5,144C 388,140.5 384.5,137 381,133.5C 380.333,132.833 380.333,132.167 381,131.5C 400.006,113.66 418.506,95.327 436.5,76.5 Z"/></g>
<g><path style="opacity:0.945" fill="#fc0909" d="M 61.5,94.5 C 64.5162,95.3431 67.1829,96.8431 69.5,99C 88.1667,113.667 106.833,128.333 125.5,143C 121.453,148.258 117.287,153.425 113,158.5C 92.3568,142.691 71.8568,126.691 51.5,110.5C 50.4173,109.635 50.2506,108.635 51,107.5C 54.713,103.292 58.213,98.959 61.5,94.5 Z"/></g>
<g><path style="opacity:0.991" fill="#fb0a09" d="M 338.5,243.5 C 332.167,243.5 325.833,243.5 319.5,243.5C 319.5,268.5 319.5,293.5 319.5,318.5C 325.833,318.5 332.167,318.5 338.5,318.5C 341.57,339.14 337.07,357.807 325,374.5C 314.697,385.902 301.863,392.402 286.5,394C 264.5,394.667 242.5,394.667 220.5,394C 205.664,392.582 193.331,386.415 183.5,375.5C 193.167,375.5 202.833,375.5 212.5,375.5C 212.5,373.167 212.5,370.833 212.5,368.5C 207.167,367.833 201.833,367.167 196.5,366.5C 201.469,362.363 205.969,357.696 210,352.5C 213.652,337.845 207.819,331.678 192.5,334C 186.57,336.092 183.57,340.259 183.5,346.5C 186.167,346.5 188.833,346.5 191.5,346.5C 192.077,341.195 195.077,339.362 200.5,341C 203.203,342.82 204.036,345.32 203,348.5C 202.333,349.833 201.667,351.167 201,352.5C 195.031,357.467 189.365,362.801 184,368.5C 183.809,370.708 183.309,372.708 182.5,374.5C 175.055,365.936 170.555,355.936 169,344.5C 168.5,335.84 168.334,327.173 168.5,318.5C 174.833,318.5 181.167,318.5 187.5,318.5C 187.5,293.5 187.5,268.5 187.5,243.5C 181.167,243.5 174.833,243.5 168.5,243.5C 165.929,224.853 169.429,207.519 179,191.5C 184.544,184.146 191.377,178.313 199.5,174C 195.998,173.344 195.998,172.011 199.5,170C 217.36,156.64 235.36,143.473 253.5,130.5C 272.641,144.474 291.641,158.641 310.5,173C 309.5,173.333 308.5,173.667 307.5,174C 322.508,182.35 332.341,194.85 337,211.5C 338.344,222.118 338.844,232.784 338.5,243.5 Z"/></g>
<g><path style="opacity:0.955" fill="#fc0909" d="M 493.5,165.5 C 494.675,165.281 495.675,165.614 496.5,166.5C 499.039,171.745 501.706,176.912 504.5,182C 480.531,193.901 456.364,205.401 432,216.5C 427.872,210.74 425.372,204.573 424.5,198C 447.591,187.119 470.591,176.285 493.5,165.5 Z"/></g>
<g><path style="opacity:0.949" fill="#fc0909" d="M 14.5,177.5 C 40.0518,185.906 65.7185,193.906 91.5,201.5C 89.9766,207.572 88.1432,213.572 86,219.5C 85.4387,220.022 84.772,220.355 84,220.5C 59.4634,212.599 34.9634,204.599 10.5,196.5C 10.1667,195.833 9.83333,195.167 9.5,194.5C 11.376,188.874 13.0427,183.208 14.5,177.5 Z"/></g>
<g><path style="opacity:0.974" fill="#000000" d="M 168.5,243.5 C 174.833,243.5 181.167,243.5 187.5,243.5C 187.5,268.5 187.5,293.5 187.5,318.5C 181.167,318.5 174.833,318.5 168.5,318.5C 168.5,293.5 168.5,268.5 168.5,243.5 Z"/></g>
<g><path style="opacity:0.974" fill="#000000" d="M 338.5,243.5 C 338.5,268.5 338.5,293.5 338.5,318.5C 332.167,318.5 325.833,318.5 319.5,318.5C 319.5,293.5 319.5,268.5 319.5,243.5C 325.833,243.5 332.167,243.5 338.5,243.5 Z"/></g>
<g><path style="opacity:0.955" fill="#fc0909" d="M -0.5,284.5 C -0.5,279.5 -0.5,274.5 -0.5,269.5C 26.2009,268.248 52.8676,266.581 79.5,264.5C 79.9538,271.159 80.2871,277.826 80.5,284.5C 53.8268,286.084 27.1602,287.75 0.5,289.5C 0.784479,287.585 0.451145,285.919 -0.5,284.5 Z"/></g>
<g><path style="opacity:0.954" fill="#fc0909" d="M 511.5,273.5 C 511.5,280.167 511.5,286.833 511.5,293.5C 484.828,293.506 458.162,293.84 431.5,294.5C 431.5,287.833 431.5,281.167 431.5,274.5C 458.171,274.433 484.837,274.1 511.5,273.5 Z"/></g>
<g><path style="opacity:1" fill="#fff5f5" d="M 196.5,366.5 C 195.957,366.56 195.624,366.893 195.5,367.5C 201.128,368.495 206.794,368.829 212.5,368.5C 212.5,370.833 212.5,373.167 212.5,375.5C 202.833,375.5 193.167,375.5 183.5,375.5C 182.833,375.5 182.5,375.167 182.5,374.5C 183.309,372.708 183.809,370.708 184,368.5C 189.365,362.801 195.031,357.467 201,352.5C 201.667,351.167 202.333,349.833 203,348.5C 204.036,345.32 203.203,342.82 200.5,341C 195.077,339.362 192.077,341.195 191.5,346.5C 188.833,346.5 186.167,346.5 183.5,346.5C 183.57,340.259 186.57,336.092 192.5,334C 207.819,331.678 213.652,337.845 210,352.5C 205.969,357.696 201.469,362.363 196.5,366.5 Z"/></g>
<g><path style="opacity:1" fill="#fff6f6" d="M 228.5,333.5 C 236.852,331.998 243.352,334.665 248,341.5C 249.24,347.848 246.74,352.014 240.5,354C 248.24,355.3 251.073,359.8 249,367.5C 243.95,374.599 237.117,377.099 228.5,375C 222.487,373.488 219.154,369.655 218.5,363.5C 222.903,362.782 226.57,363.949 229.5,367C 233.388,369.223 236.888,368.723 240,365.5C 240.319,358.347 236.819,355.681 229.5,357.5C 229.5,355.167 229.5,352.833 229.5,350.5C 232.93,350.893 236.096,350.227 239,348.5C 240.324,341.495 237.49,338.995 230.5,341C 227.853,344.756 224.187,346.256 219.5,345.5C 220.211,339.789 223.211,335.789 228.5,333.5 Z"/></g>
<g><path style="opacity:1" fill="#fffafa" d="M 272.5,334.5 C 275.833,334.5 279.167,334.5 282.5,334.5C 282.174,343.349 282.507,352.016 283.5,360.5C 285.167,360.5 286.833,360.5 288.5,360.5C 288.5,362.833 288.5,365.167 288.5,367.5C 286.833,367.5 285.167,367.5 283.5,367.5C 283.5,369.833 283.5,372.167 283.5,374.5C 280.833,374.5 278.167,374.5 275.5,374.5C 275.802,371.941 275.468,369.607 274.5,367.5C 268.167,367.5 261.833,367.5 255.5,367.5C 255.336,364.813 255.503,362.146 256,359.5C 261.524,351.101 267.024,342.768 272.5,334.5 Z"/></g>
<g><path style="opacity:1" fill="#feb2b2" d="M 272.5,334.5 C 275.962,333.518 279.629,333.185 283.5,333.5C 283.5,342.5 283.5,351.5 283.5,360.5C 282.507,352.016 282.174,343.349 282.5,334.5C 279.167,334.5 275.833,334.5 272.5,334.5 Z"/></g>
<g><path style="opacity:1" fill="#fff7f6" d="M 297.5,334.5 C 305.5,334.5 313.5,334.5 321.5,334.5C 321.5,336.5 321.5,338.5 321.5,340.5C 315.642,340.178 309.975,340.511 304.5,341.5C 303.362,344.304 303.195,347.304 304,350.5C 311.498,345.653 317.831,346.986 323,354.5C 326.587,367.585 321.587,374.585 308,375.5C 300.152,375.147 295.652,371.147 294.5,363.5C 299.419,362.372 303.085,363.872 305.5,368C 313.836,369.327 317.003,365.827 315,357.5C 314.167,356.667 313.333,355.833 312.5,355C 308.352,354.331 304.352,354.831 300.5,356.5C 299.106,356.379 297.772,356.046 296.5,355.5C 295.353,348.31 295.687,341.31 297.5,334.5 Z"/></g>
<g><path style="opacity:0.947" fill="#fc0909" d="M 422.5,338.5 C 448.163,347.11 473.496,356.61 498.5,367C 496.236,373.028 493.569,378.861 490.5,384.5C 466.283,375.039 441.95,365.872 417.5,357C 416.978,356.439 416.645,355.772 416.5,355C 418.931,349.641 420.931,344.141 422.5,338.5 Z"/></g>
<g><path style="opacity:1" fill="#fe9796" d="M 297.5,334.5 C 305.65,333.507 313.983,333.174 322.5,333.5C 322.5,336.167 322.5,338.833 322.5,341.5C 316.5,341.5 310.5,341.5 304.5,341.5C 309.975,340.511 315.642,340.178 321.5,340.5C 321.5,338.5 321.5,336.5 321.5,334.5C 313.5,334.5 305.5,334.5 297.5,334.5 Z"/></g>
<g><path style="opacity:0.952" fill="#fc0909" d="M 82.5,342.5 C 86.059,347.939 89.3924,353.606 92.5,359.5C 69.9924,371.921 47.3258,384.088 24.5,396C 23.0563,396.781 21.723,396.614 20.5,395.5C 17.5788,390.659 14.9121,385.659 12.5,380.5C 12.7093,379.914 13.0426,379.414 13.5,379C 36.878,367.314 59.878,355.147 82.5,342.5 Z"/></g>
<g><path style="opacity:1" fill="#fe7876" d="M 264.5,360.5 C 267.833,360.5 271.167,360.5 274.5,360.5C 274.821,355.305 274.487,350.305 273.5,345.5C 273.783,344.711 274.283,344.044 275,343.5C 275.499,349.491 275.666,355.491 275.5,361.5C 271.629,361.815 267.962,361.482 264.5,360.5 Z"/></g>
<g><path style="opacity:1" fill="#fc1913" d="M 273.5,345.5 C 274.487,350.305 274.821,355.305 274.5,360.5C 271.167,360.5 267.833,360.5 264.5,360.5C 267.237,355.362 270.237,350.362 273.5,345.5 Z"/></g>
<g><path style="opacity:1" fill="#fea1a1" d="M 196.5,366.5 C 201.833,367.167 207.167,367.833 212.5,368.5C 206.794,368.829 201.128,368.495 195.5,367.5C 195.624,366.893 195.957,366.56 196.5,366.5 Z"/></g>
<g><path style="opacity:1" fill="#fd8988" d="M 274.5,367.5 C 275.468,369.607 275.802,371.941 275.5,374.5C 278.167,374.5 280.833,374.5 283.5,374.5C 280.713,375.477 277.713,375.81 274.5,375.5C 274.5,372.833 274.5,370.167 274.5,367.5 Z"/></g>
<g><path style="opacity:0.946" fill="#fc0909" d="M 391.5,399.5 C 393.255,400.072 394.922,400.906 396.5,402C 414.906,418.285 433.406,434.451 452,450.5C 449.308,455.949 445.475,460.782 440.5,465C 439.833,465.667 439.167,465.667 438.5,465C 419,448.167 399.5,431.333 380,414.5C 379.333,413.833 379.333,413.167 380,412.5C 384.413,408.592 388.247,404.259 391.5,399.5 Z"/></g>
<g><path style="opacity:0.948" fill="#fc0909" d="M 122.5,411.5 C 123.552,411.351 124.552,411.517 125.5,412C 129.643,416.233 133.977,420.233 138.5,424C 121.316,442.216 104.483,460.716 88,479.5C 86.8867,481.329 85.3867,482.163 83.5,482C 79.2384,478.283 75.0718,474.45 71,470.5C 70.3333,469.833 70.3333,469.167 71,468.5C 88.6492,449.814 105.816,430.814 122.5,411.5 Z"/></g>
<g><path style="opacity:0.952" fill="#fc0909" d="M 325.5,445.5 C 326.675,445.281 327.675,445.614 328.5,446.5C 341.04,469.081 353.707,491.581 366.5,514C 361.156,517.674 355.49,520.84 349.5,523.5C 336.5,500.833 323.5,478.167 310.5,455.5C 315.357,451.908 320.357,448.575 325.5,445.5 Z"/></g>
<g><path style="opacity:0.945" fill="#fc0909" d="M 181.5,447.5 C 187.808,449.984 194.141,452.484 200.5,455C 190.48,479.542 180.314,504.042 170,528.5C 163.787,526.309 157.953,523.476 152.5,520C 162.467,495.929 172.133,471.762 181.5,447.5 Z"/></g>
<g><path style="opacity:0.954" fill="#fc0909" d="M 263.5,531.5 C 256.833,531.5 250.167,531.5 243.5,531.5C 244.581,506.851 245.247,482.184 245.5,457.5C 252.167,457.5 258.833,457.5 265.5,457.5C 264.779,482.165 264.113,506.832 263.5,531.5 Z"/></g>
</svg>
