<svg width="25" height="25" viewBox="0 0 25 25" fill="none" xmlns="http://www.w3.org/2000/svg">
<rect x="0.5" y="0.5" width="24" height="24" fill="white" fill-opacity="0.12" stroke="#587535"/>
<rect x="4.5" y="4.5" width="16" height="16" stroke="#FC0909"/>
<line x1="4.35355" y1="4.64645" x2="20.3536" y2="20.6464" stroke="#FC0909"/>
<line x1="20.3536" y1="4.35355" x2="4.35355" y2="20.3536" stroke="#FC0909"/>
<path d="M2.12607 1.81818V4H1.66477V2.25604H1.65199L1.15234 2.56925V2.16016L1.69247 1.81818H2.12607ZM2.73091 4L3.63539 2.21023V2.19531H2.58176V1.81818H4.11266V2.20064L3.20712 4H2.73091ZM5.18892 1.78835C5.30114 1.78835 5.40909 1.80717 5.51278 1.84482C5.61719 1.88246 5.71023 1.94247 5.7919 2.02486C5.87429 2.10724 5.93928 2.21662 5.98686 2.35298C6.03516 2.48864 6.05966 2.65518 6.06037 2.85263C6.06037 3.038 6.03942 3.20348 5.99751 3.34908C5.95632 3.49396 5.89702 3.61719 5.8196 3.71875C5.74219 3.82031 5.64879 3.89773 5.53942 3.95099C5.43004 4.00355 5.30788 4.02983 5.17294 4.02983C5.02734 4.02983 4.89879 4.00178 4.78729 3.94567C4.67578 3.88885 4.58594 3.81179 4.51776 3.71449C4.45028 3.61648 4.40945 3.50639 4.39524 3.38423H4.85014C4.8679 3.46378 4.90518 3.52557 4.962 3.5696C5.01882 3.61293 5.08913 3.63459 5.17294 3.63459C5.31499 3.63459 5.42294 3.5728 5.4968 3.44922C5.57067 3.32493 5.60795 3.15483 5.60866 2.93892H5.59375C5.56108 3.00284 5.51705 3.05788 5.46165 3.10405C5.40625 3.1495 5.34268 3.18466 5.27095 3.20952C5.19993 3.23438 5.12429 3.2468 5.04403 3.2468C4.91548 3.2468 4.80078 3.21662 4.69993 3.15625C4.59908 3.09588 4.51953 3.01278 4.46129 2.90696C4.40305 2.80114 4.37393 2.6804 4.37393 2.54474C4.37322 2.39844 4.40696 2.26811 4.47514 2.15376C4.54332 2.03942 4.63849 1.94993 4.76065 1.8853C4.88352 1.81996 5.02628 1.78764 5.18892 1.78835ZM5.19212 2.15057C5.12038 2.15057 5.05646 2.16761 5.00036 2.2017C4.94496 2.2358 4.90092 2.28161 4.86825 2.33913C4.83629 2.39666 4.82067 2.46094 4.82138 2.53196C4.82138 2.60369 4.837 2.66832 4.86825 2.72585C4.90021 2.78267 4.94354 2.82812 4.99822 2.86222C5.05362 2.8956 5.11683 2.91229 5.18786 2.91229C5.24112 2.91229 5.29048 2.90234 5.33594 2.88246C5.38139 2.86257 5.42081 2.83523 5.45419 2.80043C5.48828 2.76491 5.51491 2.72408 5.53409 2.67791C5.55327 2.63175 5.56286 2.58274 5.56286 2.53089C5.56214 2.462 5.54581 2.39879 5.51385 2.34126C5.48189 2.28374 5.43786 2.23757 5.38175 2.20277C5.32564 2.16797 5.26243 2.15057 5.19212 2.15057Z" fill="#04A832"/>
<path d="M11.1147 21.582H10.6481C10.6396 21.5217 10.6222 21.468 10.5959 21.4212C10.5696 21.3736 10.5359 21.3331 10.4947 21.2997C10.4535 21.2663 10.4059 21.2408 10.3519 21.223C10.2987 21.2053 10.2408 21.1964 10.1783 21.1964C10.0653 21.1964 9.96697 21.2244 9.88317 21.2805C9.79936 21.3359 9.73438 21.4169 9.68821 21.5234C9.64205 21.6293 9.61896 21.7578 9.61896 21.9091C9.61896 22.0646 9.64205 22.1953 9.68821 22.3011C9.73509 22.407 9.80043 22.4869 9.88423 22.5408C9.96804 22.5948 10.065 22.6218 10.1751 22.6218C10.2369 22.6218 10.294 22.6136 10.3466 22.5973C10.3999 22.581 10.4471 22.5572 10.4883 22.5259C10.5295 22.494 10.5636 22.4553 10.5906 22.4098C10.6183 22.3643 10.6374 22.3125 10.6481 22.2543L11.1147 22.2564C11.1026 22.3565 11.0724 22.4531 11.0241 22.5462C10.9766 22.6385 10.9123 22.7212 10.8313 22.7944C10.7511 22.8668 10.6552 22.9244 10.5437 22.967C10.4329 23.0089 10.3075 23.0298 10.1676 23.0298C9.97301 23.0298 9.79901 22.9858 9.6456 22.8977C9.4929 22.8097 9.37216 22.6822 9.28338 22.5153C9.19531 22.3484 9.15128 22.1463 9.15128 21.9091C9.15128 21.6712 9.19602 21.4688 9.28551 21.3018C9.375 21.1349 9.49645 21.0078 9.64986 20.9205C9.80327 20.8324 9.97585 20.7884 10.1676 20.7884C10.294 20.7884 10.4112 20.8061 10.5192 20.8416C10.6278 20.8771 10.7241 20.929 10.8079 20.9972C10.8917 21.0646 10.9599 21.1474 11.0124 21.2454C11.0657 21.3434 11.0998 21.4556 11.1147 21.582ZM11.8908 22.054V23H11.437V20.8182H11.878V21.6523H11.8972C11.9341 21.5558 11.9938 21.4801 12.0762 21.4254C12.1586 21.37 12.2619 21.3423 12.3862 21.3423C12.4998 21.3423 12.5989 21.3672 12.6834 21.4169C12.7686 21.4659 12.8347 21.5366 12.8816 21.6289C12.9292 21.7205 12.9526 21.8303 12.9519 21.9581V23H12.498V22.0391C12.4988 21.9382 12.4732 21.8597 12.4213 21.8036C12.3702 21.7475 12.2985 21.7195 12.2061 21.7195C12.1444 21.7195 12.0897 21.7326 12.0421 21.7589C11.9952 21.7852 11.9583 21.8235 11.9313 21.8739C11.905 21.9237 11.8915 21.9837 11.8908 22.054ZM13.7757 23.0309C13.6713 23.0309 13.5782 23.0128 13.4965 22.9766C13.4149 22.9396 13.3502 22.8853 13.3026 22.8136C13.2558 22.7411 13.2323 22.6509 13.2323 22.543C13.2323 22.4521 13.249 22.3757 13.2824 22.3139C13.3158 22.2521 13.3612 22.2024 13.4188 22.1648C13.4763 22.1271 13.5416 22.0987 13.6148 22.0795C13.6887 22.0604 13.7661 22.0469 13.847 22.0391C13.9422 22.0291 14.0189 22.0199 14.0771 22.0114C14.1354 22.0021 14.1776 21.9886 14.2039 21.9709C14.2302 21.9531 14.2433 21.9268 14.2433 21.892V21.8857C14.2433 21.8182 14.222 21.766 14.1794 21.729C14.1375 21.6921 14.0779 21.6737 14.0004 21.6737C13.9188 21.6737 13.8538 21.6918 13.8055 21.728C13.7572 21.7635 13.7252 21.8082 13.7096 21.8622L13.2899 21.8281C13.3112 21.7287 13.3531 21.6428 13.4156 21.5703C13.4781 21.4972 13.5587 21.4411 13.6574 21.402C13.7568 21.3622 13.8719 21.3423 14.0026 21.3423C14.0935 21.3423 14.1805 21.353 14.2636 21.3743C14.3474 21.3956 14.4216 21.4286 14.4862 21.4734C14.5516 21.5181 14.6031 21.5756 14.6407 21.646C14.6784 21.7156 14.6972 21.799 14.6972 21.8963V23H14.2668V22.7731H14.254C14.2277 22.8242 14.1926 22.8693 14.1485 22.9084C14.1045 22.9467 14.0516 22.9769 13.9898 22.9989C13.928 23.0202 13.8566 23.0309 13.7757 23.0309ZM13.9056 22.7177C13.9724 22.7177 14.0313 22.7045 14.0825 22.6783C14.1336 22.6513 14.1737 22.6151 14.2029 22.5696C14.232 22.5241 14.2465 22.4727 14.2465 22.4151V22.2415C14.2323 22.2507 14.2128 22.2592 14.1879 22.267C14.1638 22.2741 14.1365 22.2809 14.1059 22.2873C14.0754 22.293 14.0448 22.2983 14.0143 22.3033C13.9838 22.3075 13.9561 22.3114 13.9312 22.315C13.8779 22.3228 13.8314 22.3352 13.7916 22.3523C13.7519 22.3693 13.721 22.3924 13.699 22.4215C13.6769 22.4499 13.6659 22.4854 13.6659 22.5281C13.6659 22.5898 13.6883 22.6371 13.733 22.6697C13.7785 22.7017 13.836 22.7177 13.9056 22.7177ZM15.0493 23V21.3636H15.4893V21.6491H15.5063C15.5361 21.5476 15.5862 21.4709 15.6565 21.419C15.7268 21.3665 15.8078 21.3402 15.8994 21.3402C15.9221 21.3402 15.9466 21.3416 15.9729 21.3445C15.9992 21.3473 16.0223 21.3512 16.0422 21.3562V21.7589C16.0209 21.7525 15.9914 21.7468 15.9537 21.7418C15.9161 21.7369 15.8817 21.7344 15.8504 21.7344C15.7836 21.7344 15.724 21.7489 15.6714 21.7781C15.6196 21.8065 15.5784 21.8462 15.5479 21.8974C15.518 21.9485 15.5031 22.0075 15.5031 22.0742V23H15.0493ZM16.9379 23.6477C16.7908 23.6477 16.6648 23.6275 16.5597 23.587C16.4553 23.5472 16.3722 23.4929 16.3104 23.424C16.2486 23.3551 16.2085 23.2777 16.19 23.1918L16.6097 23.1353C16.6225 23.168 16.6428 23.1985 16.6705 23.2269C16.6982 23.2553 16.7347 23.2781 16.7802 23.2951C16.8263 23.3129 16.8825 23.3217 16.9485 23.3217C17.0472 23.3217 17.1286 23.2976 17.1925 23.2493C17.2571 23.2017 17.2894 23.1218 17.2894 23.0096V22.7102H17.2702C17.2504 22.7557 17.2205 22.7987 17.1808 22.8391C17.141 22.8796 17.0898 22.9126 17.0273 22.9382C16.9648 22.9638 16.8903 22.9766 16.8036 22.9766C16.6808 22.9766 16.5689 22.9482 16.468 22.8913C16.3679 22.8338 16.288 22.7461 16.2283 22.6282C16.1694 22.5096 16.1399 22.3597 16.1399 22.1786C16.1399 21.9933 16.1701 21.8384 16.2305 21.7141C16.2908 21.5898 16.3711 21.4968 16.4712 21.435C16.5721 21.3732 16.6825 21.3423 16.8026 21.3423C16.8942 21.3423 16.9709 21.358 17.0327 21.3892C17.0945 21.4197 17.1442 21.4581 17.1818 21.5043C17.2202 21.5497 17.2496 21.5945 17.2702 21.6385H17.2873V21.3636H17.7379V23.016C17.7379 23.1552 17.7038 23.2717 17.6357 23.3654C17.5675 23.4592 17.473 23.5295 17.3523 23.5763C17.2322 23.6239 17.0941 23.6477 16.9379 23.6477ZM16.9474 22.6357C17.0206 22.6357 17.0824 22.6175 17.1328 22.5813C17.1839 22.5444 17.223 22.4918 17.25 22.4237C17.2777 22.3548 17.2915 22.2724 17.2915 22.1765C17.2915 22.0806 17.2781 21.9975 17.2511 21.9272C17.2241 21.8562 17.185 21.8011 17.1339 21.7621C17.0827 21.723 17.0206 21.7035 16.9474 21.7035C16.8729 21.7035 16.81 21.7237 16.7589 21.7642C16.7077 21.804 16.669 21.8594 16.6428 21.9304C16.6165 22.0014 16.6033 22.0835 16.6033 22.1765C16.6033 22.271 16.6165 22.3526 16.6428 22.4215C16.6697 22.4897 16.7085 22.5426 16.7589 22.5803C16.81 22.6172 16.8729 22.6357 16.9474 22.6357ZM18.8448 23.032C18.6765 23.032 18.5316 22.9979 18.4102 22.9297C18.2894 22.8608 18.1964 22.7635 18.131 22.6378C18.0657 22.5114 18.033 22.3619 18.033 22.1893C18.033 22.021 18.0657 21.8732 18.131 21.7461C18.1964 21.619 18.2884 21.5199 18.407 21.4489C18.5263 21.3778 18.6662 21.3423 18.8267 21.3423C18.9347 21.3423 19.0352 21.3597 19.1282 21.3945C19.2219 21.4286 19.3036 21.4801 19.3732 21.549C19.4435 21.6179 19.4982 21.7045 19.5373 21.8089C19.5763 21.9126 19.5959 22.0341 19.5959 22.1733V22.2979H18.2141V22.0167H19.1687C19.1687 21.9513 19.1545 21.8935 19.1261 21.843C19.0977 21.7926 19.0582 21.7532 19.0078 21.7248C18.9581 21.6957 18.9002 21.6811 18.8342 21.6811C18.7653 21.6811 18.7042 21.6971 18.6509 21.729C18.5984 21.7603 18.5572 21.8026 18.5273 21.8558C18.4975 21.9084 18.4822 21.967 18.4815 22.0316V22.299C18.4815 22.38 18.4964 22.4499 18.5263 22.5089C18.5568 22.5678 18.5998 22.6133 18.6552 22.6452C18.7106 22.6772 18.7763 22.6932 18.8523 22.6932C18.9027 22.6932 18.9489 22.6861 18.9908 22.6719C19.0327 22.6577 19.0685 22.6364 19.0984 22.608C19.1282 22.5795 19.1509 22.5447 19.1665 22.5036L19.5863 22.5312C19.565 22.6321 19.5213 22.7202 19.4553 22.7955C19.3899 22.87 19.3054 22.9283 19.2017 22.9702C19.0987 23.0114 18.9798 23.032 18.8448 23.032ZM19.892 23V21.3636H20.332V21.6491H20.3491C20.3789 21.5476 20.429 21.4709 20.4993 21.419C20.5696 21.3665 20.6506 21.3402 20.7422 21.3402C20.7649 21.3402 20.7894 21.3416 20.8157 21.3445C20.842 21.3473 20.8651 21.3512 20.8849 21.3562V21.7589C20.8636 21.7525 20.8342 21.7468 20.7965 21.7418C20.7589 21.7369 20.7244 21.7344 20.6932 21.7344C20.6264 21.7344 20.5668 21.7489 20.5142 21.7781C20.4624 21.8065 20.4212 21.8462 20.3906 21.8974C20.3608 21.9485 20.3459 22.0075 20.3459 22.0742V23H19.892ZM21.7766 22.6165V22.2532L22.6875 20.8182H23.0007V21.321H22.8153L22.2411 22.2298V22.2468H23.5355V22.6165H21.7766ZM22.8239 23V22.5057L22.8324 22.3448V20.8182H23.2649V23H22.8239Z" fill="#587535"/>
</svg>
