<?xml version="1.0" encoding="UTF-8"?>
<!DOCTYPE svg PUBLIC "-//W3C//DTD SVG 1.1//EN" "http://www.w3.org/Graphics/SVG/1.1/DTD/svg11.dtd">
<svg xmlns="http://www.w3.org/2000/svg" version="1.1" width="512px" height="533px" style="shape-rendering:geometricPrecision; text-rendering:geometricPrecision; image-rendering:optimizeQuality; fill-rule:evenodd; clip-rule:evenodd" xmlns:xlink="http://www.w3.org/1999/xlink">
<g><path style="opacity:0.97" fill="#909090" d="M 242.5,15.5 C 249.148,16.1395 255.814,16.4728 262.5,16.5C 261.365,42.8163 260.699,69.1497 260.5,95.5C 253.826,95.2871 247.159,94.9538 240.5,94.5C 241.167,68.1667 241.833,41.8333 242.5,15.5 Z"/></g>
<g><path style="opacity:0.974" fill="#909090" d="M 353.5,38.5 C 360.07,40.4517 366.07,43.4517 371.5,47.5C 360.667,70.5 349.833,93.5 339,116.5C 332.405,115.904 326.238,113.571 320.5,109.5C 331.788,85.9273 342.788,62.2606 353.5,38.5 Z"/></g>
<g><path style="opacity:0.978" fill="#909090" d="M 148.5,43.5 C 149.496,43.4142 150.329,43.7476 151,44.5C 164.833,66.3333 178.667,88.1667 192.5,110C 187.254,113.875 181.754,117.375 176,120.5C 161.751,99.0035 147.751,77.3368 134,55.5C 133.251,54.365 133.417,53.365 134.5,52.5C 139.571,49.9744 144.238,46.9744 148.5,43.5 Z"/></g>
<g><path style="opacity:0.983" fill="#909090" d="M 436.5,88.5 C 441.908,92.4002 446.908,96.9002 451.5,102C 432.528,119.971 413.862,138.305 395.5,157C 394.833,157.667 394.167,157.667 393.5,157C 389.167,152.667 384.833,148.333 380.5,144C 399.062,125.271 417.728,106.771 436.5,88.5 Z"/></g>
<g><path style="opacity:0.98" fill="#909090" d="M 61.5,105.5 C 82.9538,121.741 104.287,138.241 125.5,155C 121.5,159.667 117.5,164.333 113.5,169C 111.369,168.602 109.369,167.602 107.5,166C 88.6667,151.167 69.8333,136.333 51,121.5C 50.3333,120.833 50.3333,120.167 51,119.5C 54.7524,114.982 58.2524,110.316 61.5,105.5 Z"/></g>
<g><path style="opacity:0.973" fill="#909090" d="M 494.5,176.5 C 498.678,181.669 502.011,187.503 504.5,194C 480.62,205.44 456.62,216.607 432.5,227.5C 429.176,222.86 426.343,217.86 424,212.5C 423.251,211.365 423.417,210.365 424.5,209.5C 447.936,198.479 471.269,187.479 494.5,176.5 Z"/></g>
<g><path style="opacity:0.971" fill="#909090" d="M 14.5,189.5 C 40.5186,196.84 66.1853,205.173 91.5,214.5C 89.4318,220.538 87.2651,226.538 85,232.5C 59.9343,224.2 34.7677,216.2 9.5,208.5C 10.9609,202.116 12.6276,195.783 14.5,189.5 Z"/></g>
<g><path style="opacity:1" fill="#8f8f8f" d="M 338.5,262.5 C 332.167,262.5 325.833,262.5 319.5,262.5C 319.5,267.5 319.5,272.5 319.5,277.5C 311.833,277.5 304.167,277.5 296.5,277.5C 296.167,284.833 295.833,292.167 295.5,299.5C 297.342,299.723 299.175,300.057 301,300.5C 311.275,295.393 315.942,298.393 315,309.5C 310.2,313.804 306.034,313.304 302.5,308C 299.854,307.503 297.187,307.336 294.5,307.5C 295.86,315.201 300.527,319.201 308.5,319.5C 312.352,319.104 316.019,318.104 319.5,316.5C 319.5,323.5 319.5,330.5 319.5,337.5C 325.833,337.5 332.167,337.5 338.5,337.5C 342.283,361.309 335.949,381.809 319.5,399C 311.701,405.732 302.701,410.066 292.5,412C 266.5,412.667 240.5,412.667 214.5,412C 188.687,405.853 173.52,389.686 169,363.5C 168.5,354.84 168.334,346.173 168.5,337.5C 174.833,337.5 181.167,337.5 187.5,337.5C 187.5,331.167 187.5,324.833 187.5,318.5C 195.833,318.5 204.167,318.5 212.5,318.5C 212.5,316.167 212.5,313.833 212.5,311.5C 206.824,311.666 201.157,311.499 195.5,311C 200.027,306.473 204.527,301.973 209,297.5C 213.774,288.954 211.94,282.454 203.5,278C 197.986,277.07 192.652,277.57 187.5,279.5C 187.5,273.833 187.5,268.167 187.5,262.5C 181.167,262.5 174.833,262.5 168.5,262.5C 164.681,238.128 171.348,217.295 188.5,200C 191.997,197.417 195.664,195.084 199.5,193C 198.376,192.751 197.376,192.251 196.5,191.5C 215.322,177.256 234.322,163.256 253.5,149.5C 272.678,163.256 291.678,177.256 310.5,191.5C 309.624,192.251 308.624,192.751 307.5,193C 322.943,201.037 332.777,213.537 337,230.5C 338.344,241.118 338.844,251.784 338.5,262.5 Z"/></g>
<g><path style="opacity:0.972" fill="#000000" d="M 168.5,262.5 C 174.833,262.5 181.167,262.5 187.5,262.5C 187.5,268.167 187.5,273.833 187.5,279.5C 184.485,282.532 182.818,286.199 182.5,290.5C 184.167,290.5 185.833,290.5 187.5,290.5C 187.5,296.5 187.5,302.5 187.5,308.5C 183.909,310.782 182.576,314.116 183.5,318.5C 184.833,318.5 186.167,318.5 187.5,318.5C 187.5,324.833 187.5,331.167 187.5,337.5C 181.167,337.5 174.833,337.5 168.5,337.5C 168.5,312.5 168.5,287.5 168.5,262.5 Z"/></g>
<g><path style="opacity:0.972" fill="#000000" d="M 338.5,262.5 C 338.5,287.5 338.5,312.5 338.5,337.5C 332.167,337.5 325.833,337.5 319.5,337.5C 319.5,330.5 319.5,323.5 319.5,316.5C 326.09,308.802 326.09,301.135 319.5,293.5C 319.5,290.5 319.5,287.5 319.5,284.5C 320.5,284.5 321.5,284.5 322.5,284.5C 322.5,282.167 322.5,279.833 322.5,277.5C 321.5,277.5 320.5,277.5 319.5,277.5C 319.5,272.5 319.5,267.5 319.5,262.5C 325.833,262.5 332.167,262.5 338.5,262.5 Z"/></g>
<g><path style="opacity:0.97" fill="#919191" d="M -0.5,296.5 C -0.5,291.5 -0.5,286.5 -0.5,281.5C 26.1451,279.568 52.8117,277.901 79.5,276.5C 80.2814,283.074 80.2814,289.574 79.5,296C 53.1791,297.791 26.8458,299.291 0.5,300.5C 0.767809,298.901 0.434475,297.568 -0.5,296.5 Z"/></g>
<g><path style="opacity:1" fill="#fafafa" d="M 187.5,318.5 C 186.167,318.5 184.833,318.5 183.5,318.5C 182.576,314.116 183.909,310.782 187.5,308.5C 193.163,303.67 198.33,298.337 203,292.5C 203.746,285.429 200.579,282.929 193.5,285C 191.845,286.444 191.178,288.278 191.5,290.5C 190.167,290.5 188.833,290.5 187.5,290.5C 185.833,290.5 184.167,290.5 182.5,290.5C 182.818,286.199 184.485,282.532 187.5,279.5C 192.652,277.57 197.986,277.07 203.5,278C 211.94,282.454 213.774,288.954 209,297.5C 204.527,301.973 200.027,306.473 195.5,311C 201.157,311.499 206.824,311.666 212.5,311.5C 212.5,313.833 212.5,316.167 212.5,318.5C 204.167,318.5 195.833,318.5 187.5,318.5 Z"/></g>
<g><path style="opacity:1" fill="#f9f9f9" d="M 227.5,277.5 C 235.226,275.992 241.726,277.992 247,283.5C 249.919,290 248.085,294.667 241.5,297.5C 249.835,300.896 251.669,306.563 247,314.5C 239.226,320.573 231.059,321.073 222.5,316C 220.218,313.603 218.884,310.769 218.5,307.5C 222.903,306.782 226.57,307.949 229.5,311C 232.964,311.817 236.298,311.483 239.5,310C 240.926,307.289 240.592,304.789 238.5,302.5C 235.579,301.593 232.579,301.26 229.5,301.5C 229.5,299.167 229.5,296.833 229.5,294.5C 233.192,295.029 236.358,294.029 239,291.5C 239.896,288.975 239.396,286.808 237.5,285C 234.833,284.333 232.167,284.333 229.5,285C 227.42,288.878 224.087,290.378 219.5,289.5C 219.698,283.751 222.364,279.751 227.5,277.5 Z"/></g>
<g><path style="opacity:1" fill="#fbfbfb" d="M 272.5,277.5 C 276.167,277.5 279.833,277.5 283.5,277.5C 283.5,286.5 283.5,295.5 283.5,304.5C 285.167,304.5 286.833,304.5 288.5,304.5C 288.5,306.833 288.5,309.167 288.5,311.5C 286.833,311.5 285.167,311.5 283.5,311.5C 283.5,313.833 283.5,316.167 283.5,318.5C 280.5,318.5 277.5,318.5 274.5,318.5C 274.5,316.167 274.5,313.833 274.5,311.5C 268.167,311.5 261.833,311.5 255.5,311.5C 255.336,308.813 255.503,306.146 256,303.5C 261.329,294.682 266.829,286.015 272.5,277.5 Z"/></g>
<g><path style="opacity:1" fill="#f8f8f8" d="M 319.5,277.5 C 320.5,277.5 321.5,277.5 322.5,277.5C 322.5,279.833 322.5,282.167 322.5,284.5C 321.5,284.5 320.5,284.5 319.5,284.5C 314.489,284.334 309.489,284.501 304.5,285C 303.383,288.073 303.216,291.24 304,294.5C 305.686,292.081 308.019,291.081 311,291.5C 314.024,291.481 316.858,292.147 319.5,293.5C 326.09,301.135 326.09,308.802 319.5,316.5C 316.019,318.104 312.352,319.104 308.5,319.5C 300.527,319.201 295.86,315.201 294.5,307.5C 297.187,307.336 299.854,307.503 302.5,308C 306.034,313.304 310.2,313.804 315,309.5C 315.942,298.393 311.275,295.393 301,300.5C 299.175,300.057 297.342,299.723 295.5,299.5C 295.833,292.167 296.167,284.833 296.5,277.5C 304.167,277.5 311.833,277.5 319.5,277.5 Z"/></g>
<g><path style="opacity:1" fill="#8c8c8c" d="M 187.5,308.5 C 187.5,302.5 187.5,296.5 187.5,290.5C 188.833,290.5 190.167,290.5 191.5,290.5C 191.178,288.278 191.845,286.444 193.5,285C 200.579,282.929 203.746,285.429 203,292.5C 198.33,298.337 193.163,303.67 187.5,308.5 Z"/></g>
<g><path style="opacity:1" fill="#919191" d="M 319.5,284.5 C 319.5,287.5 319.5,290.5 319.5,293.5C 316.858,292.147 314.024,291.481 311,291.5C 308.019,291.081 305.686,292.081 304,294.5C 303.216,291.24 303.383,288.073 304.5,285C 309.489,284.501 314.489,284.334 319.5,284.5 Z"/></g>
<g><path style="opacity:0.972" fill="#919191" d="M 511.5,285.5 C 511.5,291.833 511.5,298.167 511.5,304.5C 484.841,305.292 458.174,305.626 431.5,305.5C 431.5,299.167 431.5,292.833 431.5,286.5C 458.157,285.654 484.824,285.321 511.5,285.5 Z"/></g>
<g><path style="opacity:1" fill="#969696" d="M 273.5,287.5 C 275.45,292.735 276.117,298.402 275.5,304.5C 271.774,304.823 268.107,304.489 264.5,303.5C 268.05,298.393 271.05,293.059 273.5,287.5 Z"/></g>
<g><path style="opacity:0.972" fill="#909090" d="M 422.5,349.5 C 447.922,358.709 473.255,368.209 498.5,378C 496.142,383.404 493.975,388.904 492,394.5C 491.439,395.022 490.772,395.355 490,395.5C 465.523,386.341 441.023,377.341 416.5,368.5C 418.5,362.167 420.5,355.833 422.5,349.5 Z"/></g>
<g><path style="opacity:0.976" fill="#909090" d="M 81.5,354.5 C 82.4959,354.414 83.3292,354.748 84,355.5C 86.9603,360.586 89.7936,365.753 92.5,371C 69.3257,383.754 45.9923,396.254 22.5,408.5C 21.5224,408.023 20.6891,407.357 20,406.5C 17.921,402.007 15.5877,397.674 13,393.5C 12.2506,392.365 12.4173,391.365 13.5,390.5C 36.5448,378.98 59.2114,366.98 81.5,354.5 Z"/></g>
<g><path style="opacity:0.981" fill="#909090" d="M 392.5,410.5 C 412.395,427.374 432.229,444.374 452,461.5C 452.315,462.908 451.982,464.241 451,465.5C 446.965,469.2 443.298,473.2 440,477.5C 419.833,460 399.667,442.5 379.5,425C 383.67,419.998 388.004,415.164 392.5,410.5 Z"/></g>
<g><path style="opacity:0.981" fill="#909090" d="M 123.5,422.5 C 129.29,426.462 134.124,431.128 138,436.5C 120.5,455.333 103,474.167 85.5,493C 84.8333,493.667 84.1667,493.667 83.5,493C 79.3333,489.5 75.1667,486 71,482.5C 70.3333,481.5 70.3333,480.5 71,479.5C 88.7059,460.63 106.206,441.63 123.5,422.5 Z"/></g>
<g><path style="opacity:0.978" fill="#909090" d="M 355.5,532.5 C 352.833,532.5 350.167,532.5 347.5,532.5C 335.179,510.527 322.845,488.527 310.5,466.5C 315.917,463.041 321.417,459.708 327,456.5C 340.167,479.5 353.333,502.5 366.5,525.5C 362.599,527.608 358.933,529.941 355.5,532.5 Z"/></g>
<g><path style="opacity:0.973" fill="#909090" d="M 173.5,532.5 C 166.5,532.5 159.5,532.5 152.5,532.5C 161.721,507.834 171.721,483.501 182.5,459.5C 188.656,461.716 194.656,464.216 200.5,467C 191.358,488.783 182.358,510.616 173.5,532.5 Z"/></g>
<g><path style="opacity:0.968" fill="#919191" d="M 263.5,532.5 C 257.167,532.5 250.833,532.5 244.5,532.5C 244.735,511.498 245.069,490.498 245.5,469.5C 252.167,469.5 258.833,469.5 265.5,469.5C 264.977,490.508 264.311,511.508 263.5,532.5 Z"/></g>
</svg>
