<?xml version="1.0" encoding="UTF-8"?>
<!DOCTYPE svg PUBLIC "-//W3C//DTD SVG 1.1//EN" "http://www.w3.org/Graphics/SVG/1.1/DTD/svg11.dtd">
<svg xmlns="http://www.w3.org/2000/svg" version="1.1" width="512px" height="797px" style="shape-rendering:geometricPrecision; text-rendering:geometricPrecision; image-rendering:optimizeQuality; fill-rule:evenodd; clip-rule:evenodd" xmlns:xlink="http://www.w3.org/1999/xlink">
<g><path style="opacity:0.999" fill="#ffa903" d="M 253.5,-0.5 C 254.833,-0.5 256.167,-0.5 257.5,-0.5C 314.075,42.4663 371.075,84.9663 428.5,127C 422.833,127.333 417.167,127.667 411.5,128C 468.886,156.248 502.219,202.081 511.5,265.5C 511.5,290.5 511.5,315.5 511.5,340.5C 492.326,340.17 473.326,340.503 454.5,341.5C 454.5,356.833 454.5,372.167 454.5,387.5C 432.167,387.5 409.833,387.5 387.5,387.5C 385.094,409.133 383.261,430.8 382,452.5C 389.715,454.507 397.549,455.674 405.5,456C 415.968,446.837 426.968,446.17 438.5,454C 445.1,462.764 446.267,472.264 442,482.5C 433.752,493.156 423.585,495.323 411.5,489C 406.816,486.149 404.482,481.983 404.5,476.5C 396.167,476.5 387.833,476.5 379.5,476.5C 381.12,496.295 391.786,508.128 411.5,512C 427.08,514.882 441.414,512.049 454.5,503.5C 454.5,524.833 454.5,546.167 454.5,567.5C 473.326,568.497 492.326,568.83 511.5,568.5C 511.5,593.5 511.5,618.5 511.5,643.5C 501.79,708.697 467.124,755.197 407.5,783C 389.07,790.514 370.07,795.014 350.5,796.5C 287.167,796.5 223.833,796.5 160.5,796.5C 91.9512,789.765 42.7845,755.432 13,693.5C 6.28729,677.307 1.78729,660.64 -0.5,643.5C -0.5,618.5 -0.5,593.5 -0.5,568.5C 18.5,568.5 37.5,568.5 56.5,568.5C 56.5,549.5 56.5,530.5 56.5,511.5C 81.5,511.5 106.5,511.5 131.5,511.5C 131.5,504.167 131.5,496.833 131.5,489.5C 114.167,489.5 96.8333,489.5 79.5,489.5C 92.1314,476.368 104.965,463.368 118,450.5C 131.071,435.217 132.738,418.883 123,401.5C 110.251,388.43 94.7512,383.263 76.5,386C 69.4542,387.625 62.7875,390.125 56.5,393.5C 56.5,375.833 56.5,358.167 56.5,340.5C 37.5,340.5 18.5,340.5 -0.5,340.5C -0.5,315.833 -0.5,291.167 -0.5,266.5C 8.46156,202.746 41.7949,156.579 99.5,128C 93.8333,127.667 88.1667,127.333 82.5,127C 139.925,84.9663 196.925,42.4663 253.5,-0.5 Z"/></g>
<g><path style="opacity:1" fill="#010000" d="M -0.5,341.5 C 18.1667,341.5 36.8333,341.5 55.5,341.5C 55.5,359.167 55.5,376.833 55.5,394.5C 46.2622,402.651 41.5955,412.984 41.5,425.5C 46.5,425.5 51.5,425.5 56.5,425.5C 56.5,443.5 56.5,461.5 56.5,479.5C 51.8954,483.602 47.3954,487.936 43,492.5C 42.5005,498.825 42.3338,505.158 42.5,511.5C 47.1667,511.5 51.8333,511.5 56.5,511.5C 56.5,530.5 56.5,549.5 56.5,568.5C 37.5,568.5 18.5,568.5 -0.5,568.5C -0.5,492.833 -0.5,417.167 -0.5,341.5 Z"/></g>
<g><path style="opacity:1" fill="#2a1c01" d="M -0.5,341.5 C -0.5,341.167 -0.5,340.833 -0.5,340.5C 18.5,340.5 37.5,340.5 56.5,340.5C 56.5,358.167 56.5,375.833 56.5,393.5C 56.5,394.167 56.1667,394.5 55.5,394.5C 55.5,376.833 55.5,359.167 55.5,341.5C 36.8333,341.5 18.1667,341.5 -0.5,341.5 Z"/></g>
<g><path style="opacity:1" fill="#000000" d="M 454.5,341.5 C 473.167,341.5 491.833,341.5 510.5,341.5C 510.5,416.833 510.5,492.167 510.5,567.5C 491.833,567.5 473.167,567.5 454.5,567.5C 454.5,546.167 454.5,524.833 454.5,503.5C 469.723,489.464 473.89,472.464 467,452.5C 464.009,446.152 459.842,440.819 454.5,436.5C 454.5,427.167 454.5,417.833 454.5,408.5C 457.5,408.5 460.5,408.5 463.5,408.5C 463.5,401.5 463.5,394.5 463.5,387.5C 460.5,387.5 457.5,387.5 454.5,387.5C 454.5,372.167 454.5,356.833 454.5,341.5 Z"/></g>
<g><path style="opacity:1" fill="#281b01" d="M 454.5,341.5 C 473.326,340.503 492.326,340.17 511.5,340.5C 511.5,416.5 511.5,492.5 511.5,568.5C 492.326,568.83 473.326,568.497 454.5,567.5C 473.167,567.5 491.833,567.5 510.5,567.5C 510.5,492.167 510.5,416.833 510.5,341.5C 491.833,341.5 473.167,341.5 454.5,341.5 Z"/></g>
<g><path style="opacity:1" fill="#fefdfd" d="M 79.5,489.5 C 96.3251,490.497 113.325,490.83 130.5,490.5C 130.5,497.167 130.5,503.833 130.5,510.5C 105.661,510.169 80.9944,510.502 56.5,511.5C 51.8333,511.5 47.1667,511.5 42.5,511.5C 42.3338,505.158 42.5005,498.825 43,492.5C 47.3954,487.936 51.8954,483.602 56.5,479.5C 70.1305,467.038 83.6305,454.372 97,441.5C 102.755,435.235 105.089,427.902 104,419.5C 98.3382,407.714 89.1716,403.881 76.5,408C 69.4419,411.607 66.1085,417.441 66.5,425.5C 63.1667,425.5 59.8333,425.5 56.5,425.5C 51.5,425.5 46.5,425.5 41.5,425.5C 41.5955,412.984 46.2622,402.651 55.5,394.5C 56.1667,394.5 56.5,394.167 56.5,393.5C 62.7875,390.125 69.4542,387.625 76.5,386C 94.7512,383.263 110.251,388.43 123,401.5C 132.738,418.883 131.071,435.217 118,450.5C 104.965,463.368 92.1314,476.368 79.5,489.5 Z"/></g>
<g><path style="opacity:1" fill="#fffefc" d="M 187.5,385.5 C 201.13,384.242 213.796,387.075 225.5,394C 237.788,403.999 241.621,416.499 237,431.5C 232.765,440.064 225.932,445.231 216.5,447C 238.487,451.99 246.987,465.49 242,487.5C 234.045,503.08 221.211,511.58 203.5,513C 184.225,515.466 168.058,509.633 155,495.5C 151.144,489.743 149.311,483.409 149.5,476.5C 158.167,476.5 166.833,476.5 175.5,476.5C 176.633,484.598 181.3,489.431 189.5,491C 196.543,492.281 203.21,491.281 209.5,488C 217.93,480.239 218.597,471.905 211.5,463C 202.492,458.074 192.825,456.241 182.5,457.5C 182.5,451.167 182.5,444.833 182.5,438.5C 188.509,438.666 194.509,438.499 200.5,438C 213.225,433.376 216.725,424.876 211,412.5C 200.706,404.506 190.373,404.506 180,412.5C 178.047,415.255 176.88,418.255 176.5,421.5C 168.167,421.5 159.833,421.5 151.5,421.5C 152.346,409.148 158.013,399.648 168.5,393C 174.604,389.583 180.937,387.083 187.5,385.5 Z"/></g>
<g><path style="opacity:1" fill="#fffefd" d="M 312.5,387.5 C 323.5,387.5 334.5,387.5 345.5,387.5C 345.5,414.5 345.5,441.5 345.5,468.5C 350.5,468.5 355.5,468.5 360.5,468.5C 360.5,475.5 360.5,482.5 360.5,489.5C 355.5,489.5 350.5,489.5 345.5,489.5C 345.5,496.833 345.5,504.167 345.5,511.5C 337.167,511.5 328.833,511.5 320.5,511.5C 320.5,504.167 320.5,496.833 320.5,489.5C 300.5,489.5 280.5,489.5 260.5,489.5C 260.334,482.492 260.5,475.492 261,468.5C 278.177,441.472 295.344,414.472 312.5,387.5 Z"/></g>
<g><path style="opacity:1" fill="#fefdfc" d="M 454.5,387.5 C 457.5,387.5 460.5,387.5 463.5,387.5C 463.5,394.5 463.5,401.5 463.5,408.5C 460.5,408.5 457.5,408.5 454.5,408.5C 439.167,408.5 423.833,408.5 408.5,408.5C 408.013,418.219 407.013,427.885 405.5,437.5C 405.833,438.167 406.167,438.833 406.5,439.5C 418.159,429.071 431.492,426.571 446.5,432C 449.312,433.328 451.978,434.828 454.5,436.5C 459.842,440.819 464.009,446.152 467,452.5C 473.89,472.464 469.723,489.464 454.5,503.5C 441.414,512.049 427.08,514.882 411.5,512C 391.786,508.128 381.12,496.295 379.5,476.5C 387.833,476.5 396.167,476.5 404.5,476.5C 404.482,481.983 406.816,486.149 411.5,489C 423.585,495.323 433.752,493.156 442,482.5C 446.267,472.264 445.1,462.764 438.5,454C 426.968,446.17 415.968,446.837 405.5,456C 397.549,455.674 389.715,454.507 382,452.5C 383.261,430.8 385.094,409.133 387.5,387.5C 409.833,387.5 432.167,387.5 454.5,387.5 Z"/></g>
<g><path style="opacity:1" fill="#ffa908" d="M 56.5,479.5 C 56.5,461.5 56.5,443.5 56.5,425.5C 59.8333,425.5 63.1667,425.5 66.5,425.5C 66.1085,417.441 69.4419,411.607 76.5,408C 89.1716,403.881 98.3382,407.714 104,419.5C 105.089,427.902 102.755,435.235 97,441.5C 83.6305,454.372 70.1305,467.038 56.5,479.5 Z"/></g>
<g><path style="opacity:1" fill="#ffab0f" d="M 454.5,408.5 C 454.5,417.833 454.5,427.167 454.5,436.5C 451.978,434.828 449.312,433.328 446.5,432C 431.492,426.571 418.159,429.071 406.5,439.5C 406.167,438.833 405.833,438.167 405.5,437.5C 407.013,427.885 408.013,418.219 408.5,408.5C 423.833,408.5 439.167,408.5 454.5,408.5 Z"/></g>
<g><path style="opacity:1" fill="#ffa908" d="M 319.5,416.5 C 320.497,433.659 320.83,450.992 320.5,468.5C 309.48,468.832 298.48,468.499 287.5,467.5C 297.927,450.304 308.594,433.304 319.5,416.5 Z"/></g>
<g><path style="opacity:1" fill="#ffdfa1" d="M 319.5,416.5 C 319.56,415.957 319.893,415.624 320.5,415.5C 321.827,433.329 321.827,450.995 320.5,468.5C 320.83,450.992 320.497,433.659 319.5,416.5 Z"/></g>
<g><path style="opacity:1" fill="#ffe9c2" d="M 79.5,489.5 C 96.8333,489.5 114.167,489.5 131.5,489.5C 131.5,496.833 131.5,504.167 131.5,511.5C 106.5,511.5 81.5,511.5 56.5,511.5C 80.9944,510.502 105.661,510.169 130.5,510.5C 130.5,503.833 130.5,497.167 130.5,490.5C 113.325,490.83 96.3251,490.497 79.5,489.5 Z"/></g>
</svg>
