<?xml version="1.0" encoding="UTF-8"?>
<!DOCTYPE svg PUBLIC "-//W3C//DTD SVG 1.1//EN" "http://www.w3.org/Graphics/SVG/1.1/DTD/svg11.dtd">
<svg xmlns="http://www.w3.org/2000/svg" version="1.1" width="512px" height="532px" style="shape-rendering:geometricPrecision; text-rendering:geometricPrecision; image-rendering:optimizeQuality; fill-rule:evenodd; clip-rule:evenodd" xmlns:xlink="http://www.w3.org/1999/xlink">
<g><path style="opacity:0.954" fill="#d22ffb" d="M 242.5,0.5 C 249.167,0.5 255.833,0.5 262.5,0.5C 261.365,26.8163 260.699,53.1497 260.5,79.5C 253.833,79.5 247.167,79.5 240.5,79.5C 241.149,53.1661 241.816,26.8328 242.5,0.5 Z"/></g>
<g><path style="opacity:0.954" fill="#d32ffc" d="M 353.5,23.5 C 359.915,25.1953 365.915,27.862 371.5,31.5C 360.389,55.384 349.056,79.0506 337.5,102.5C 331.355,100.263 325.688,97.2626 320.5,93.5C 331.514,70.1404 342.514,46.8071 353.5,23.5 Z"/></g>
<g><path style="opacity:0.948" fill="#d330fc" d="M 147.5,28.5 C 149.39,28.2965 150.89,28.9632 152,30.5C 165.375,52.0842 178.875,73.5842 192.5,95C 187.229,98.5526 181.729,101.719 176,104.5C 161.269,82.9213 147.103,60.9213 133.5,38.5C 138.196,35.1572 142.863,31.8238 147.5,28.5 Z"/></g>
<g><path style="opacity:0.955" fill="#d32ffc" d="M 436.5,72.5 C 441.331,77.1629 446.331,81.6629 451.5,86C 433.138,104.695 414.472,123.029 395.5,141C 394.092,141.315 392.759,140.982 391.5,140C 388,136.5 384.5,133 381,129.5C 380.333,128.833 380.333,128.167 381,127.5C 400.006,109.66 418.506,91.327 436.5,72.5 Z"/></g>
<g><path style="opacity:0.953" fill="#d330fc" d="M 61.5,90.5 C 64.5162,91.3431 67.1829,92.8431 69.5,95C 88.1667,109.667 106.833,124.333 125.5,139C 121.453,144.258 117.287,149.425 113,154.5C 92.3568,138.691 71.8568,122.691 51.5,106.5C 50.4173,105.635 50.2506,104.635 51,103.5C 54.713,99.2923 58.213,94.959 61.5,90.5 Z"/></g>
<g><path style="opacity:0.992" fill="#d230fb" d="M 338.5,243.5 C 332.167,243.5 325.833,243.5 319.5,243.5C 319.5,248.5 319.5,253.5 319.5,258.5C 311.913,258.186 304.413,258.519 297,259.5C 295.77,266.507 295.603,273.507 296.5,280.5C 297.772,281.046 299.106,281.379 300.5,281.5C 304.276,279.695 308.276,279.195 312.5,280C 316.5,284.333 316.5,288.667 312.5,293C 308.163,294.418 304.829,293.252 302.5,289.5C 299.914,288.52 297.247,288.187 294.5,288.5C 295.793,296.617 300.627,300.617 309,300.5C 312.719,300.222 316.219,299.222 319.5,297.5C 319.5,304.5 319.5,311.5 319.5,318.5C 325.833,318.5 332.167,318.5 338.5,318.5C 342.524,342.947 335.857,363.781 318.5,381C 311.102,386.865 302.768,390.865 293.5,393C 280.201,394.096 266.868,394.596 253.5,394.5C 240.132,394.596 226.799,394.096 213.5,393C 188.236,386.403 173.403,370.236 169,344.5C 168.5,336.173 168.334,327.84 168.5,319.5C 175.167,319.5 181.833,319.5 188.5,319.5C 188.5,313.167 188.5,306.833 188.5,300.5C 196.684,300.826 204.684,300.492 212.5,299.5C 212.5,297.167 212.5,294.833 212.5,292.5C 206.824,292.666 201.157,292.499 195.5,292C 201.033,286.802 206.2,281.302 211,275.5C 213.341,267.208 210.508,261.708 202.5,259C 197.317,258.092 192.317,258.592 187.5,260.5C 187.5,254.833 187.5,249.167 187.5,243.5C 181.167,243.5 174.833,243.5 168.5,243.5C 165.929,224.853 169.429,207.519 179,191.5C 184.544,184.146 191.377,178.313 199.5,174C 195.998,173.344 195.998,172.011 199.5,170C 217.36,156.64 235.36,143.473 253.5,130.5C 272.641,144.474 291.641,158.641 310.5,173C 309.5,173.333 308.5,173.667 307.5,174C 322.517,182.358 332.35,194.858 337,211.5C 338.344,222.118 338.844,232.784 338.5,243.5 Z"/></g>
<g><path style="opacity:0.945" fill="#d330fc" d="M 493.5,161.5 C 494.675,161.281 495.675,161.614 496.5,162.5C 499.039,167.745 501.706,172.912 504.5,178C 480.531,189.901 456.364,201.401 432,212.5C 427.872,206.74 425.372,200.573 424.5,194C 447.591,183.119 470.591,172.285 493.5,161.5 Z"/></g>
<g><path style="opacity:0.948" fill="#d22ffc" d="M 14.5,173.5 C 40.0518,181.906 65.7185,189.906 91.5,197.5C 89.9766,203.572 88.1432,209.572 86,215.5C 85.4387,216.022 84.772,216.355 84,216.5C 59.4634,208.599 34.9634,200.599 10.5,192.5C 10.1667,191.833 9.83333,191.167 9.5,190.5C 11.376,184.874 13.0427,179.208 14.5,173.5 Z"/></g>
<g><path style="opacity:0.972" fill="#010101" d="M 168.5,243.5 C 174.833,243.5 181.167,243.5 187.5,243.5C 187.5,249.167 187.5,254.833 187.5,260.5C 184.485,263.532 182.818,267.199 182.5,271.5C 184.167,271.5 185.833,271.5 187.5,271.5C 187.5,277.5 187.5,283.5 187.5,289.5C 186.685,290.837 185.518,291.837 184,292.5C 183.503,294.81 183.337,297.143 183.5,299.5C 184.833,299.5 186.167,299.5 187.5,299.5C 187.5,305.833 187.5,312.167 187.5,318.5C 181.167,318.5 174.833,318.5 168.5,318.5C 168.5,293.5 168.5,268.5 168.5,243.5 Z"/></g>
<g><path style="opacity:0.972" fill="#000000" d="M 338.5,243.5 C 338.5,268.5 338.5,293.5 338.5,318.5C 332.167,318.5 325.833,318.5 319.5,318.5C 319.5,311.5 319.5,304.5 319.5,297.5C 326.149,290.082 326.149,282.749 319.5,275.5C 319.5,272.5 319.5,269.5 319.5,266.5C 320.5,266.5 321.5,266.5 322.5,266.5C 322.5,263.833 322.5,261.167 322.5,258.5C 321.5,258.5 320.5,258.5 319.5,258.5C 319.5,253.5 319.5,248.5 319.5,243.5C 325.833,243.5 332.167,243.5 338.5,243.5 Z"/></g>
<g><path style="opacity:1" fill="#fcf8fc" d="M 212.5,299.5 C 204.167,299.5 195.833,299.5 187.5,299.5C 186.167,299.5 184.833,299.5 183.5,299.5C 183.337,297.143 183.503,294.81 184,292.5C 185.518,291.837 186.685,290.837 187.5,289.5C 191.831,285.337 196.331,281.337 201,277.5C 205.853,268.691 203.353,264.858 193.5,266C 191.845,267.444 191.178,269.278 191.5,271.5C 190.167,271.5 188.833,271.5 187.5,271.5C 185.833,271.5 184.167,271.5 182.5,271.5C 182.818,267.199 184.485,263.532 187.5,260.5C 192.317,258.592 197.317,258.092 202.5,259C 210.508,261.708 213.341,267.208 211,275.5C 206.2,281.302 201.033,286.802 195.5,292C 201.157,292.499 206.824,292.666 212.5,292.5C 212.5,294.833 212.5,297.167 212.5,299.5 Z"/></g>
<g><path style="opacity:1" fill="#fdf8fe" d="M 228.5,258.5 C 237.437,256.555 243.937,259.555 248,267.5C 248.777,273.402 246.277,277.235 240.5,279C 248.24,280.3 251.073,284.8 249,292.5C 243.868,299.325 237.035,301.825 228.5,300C 222.459,298.462 219.125,294.629 218.5,288.5C 223.506,287.653 227.506,289.153 230.5,293C 238.079,294.585 241.079,291.751 239.5,284.5C 238.975,283.808 238.308,283.308 237.5,283C 234.854,282.503 232.187,282.336 229.5,282.5C 229.5,280.167 229.5,277.833 229.5,275.5C 236.981,277.506 240.147,274.839 239,267.5C 235.402,264.911 231.736,264.911 228,267.5C 227.517,268.448 227.351,269.448 227.5,270.5C 224.833,270.5 222.167,270.5 219.5,270.5C 220.211,264.789 223.211,260.789 228.5,258.5 Z"/></g>
<g><path style="opacity:1" fill="#fefbfe" d="M 272.5,259.5 C 275.833,259.5 279.167,259.5 282.5,259.5C 282.174,268.349 282.507,277.016 283.5,285.5C 285.167,285.5 286.833,285.5 288.5,285.5C 288.5,287.833 288.5,290.167 288.5,292.5C 286.833,292.5 285.167,292.5 283.5,292.5C 283.5,294.833 283.5,297.167 283.5,299.5C 280.833,299.5 278.167,299.5 275.5,299.5C 275.802,296.941 275.468,294.607 274.5,292.5C 268.167,292.5 261.833,292.5 255.5,292.5C 255.336,289.813 255.503,287.146 256,284.5C 261.524,276.101 267.024,267.768 272.5,259.5 Z"/></g>
<g><path style="opacity:1" fill="#f2c4fe" d="M 272.5,259.5 C 275.962,258.518 279.629,258.185 283.5,258.5C 283.5,267.5 283.5,276.5 283.5,285.5C 282.507,277.016 282.174,268.349 282.5,259.5C 279.167,259.5 275.833,259.5 272.5,259.5 Z"/></g>
<g><path style="opacity:1" fill="#faf4fb" d="M 319.5,258.5 C 320.5,258.5 321.5,258.5 322.5,258.5C 322.5,261.167 322.5,263.833 322.5,266.5C 321.5,266.5 320.5,266.5 319.5,266.5C 314.5,265.167 309.5,265.167 304.5,266.5C 303.362,269.304 303.195,272.304 304,275.5C 308.623,271.923 313.456,271.59 318.5,274.5C 318.5,275.167 318.833,275.5 319.5,275.5C 326.149,282.749 326.149,290.082 319.5,297.5C 316.219,299.222 312.719,300.222 309,300.5C 300.627,300.617 295.793,296.617 294.5,288.5C 297.247,288.187 299.914,288.52 302.5,289.5C 304.829,293.252 308.163,294.418 312.5,293C 316.5,288.667 316.5,284.333 312.5,280C 308.276,279.195 304.276,279.695 300.5,281.5C 299.106,281.379 297.772,281.046 296.5,280.5C 295.603,273.507 295.77,266.507 297,259.5C 304.413,258.519 311.913,258.186 319.5,258.5 Z"/></g>
<g><path style="opacity:0.955" fill="#d22ffc" d="M -0.5,280.5 C -0.5,275.5 -0.5,270.5 -0.5,265.5C 26.197,264.187 52.8637,262.52 79.5,260.5C 79.9538,267.159 80.2871,273.826 80.5,280.5C 53.8268,282.084 27.1602,283.75 0.5,285.5C 0.784479,283.585 0.451145,281.919 -0.5,280.5 Z"/></g>
<g><path style="opacity:1" fill="#ce35f5" d="M 187.5,289.5 C 187.5,283.5 187.5,277.5 187.5,271.5C 188.833,271.5 190.167,271.5 191.5,271.5C 191.178,269.278 191.845,267.444 193.5,266C 203.353,264.858 205.853,268.691 201,277.5C 196.331,281.337 191.831,285.337 187.5,289.5 Z"/></g>
<g><path style="opacity:1" fill="#d438fc" d="M 304.5,266.5 C 309.167,266.5 313.833,266.5 318.5,266.5C 318.5,269.167 318.5,271.833 318.5,274.5C 313.456,271.59 308.623,271.923 304,275.5C 303.195,272.304 303.362,269.304 304.5,266.5 Z"/></g>
<g><path style="opacity:1" fill="#bc5ad5" d="M 304.5,266.5 C 309.5,265.167 314.5,265.167 319.5,266.5C 319.5,269.5 319.5,272.5 319.5,275.5C 318.833,275.5 318.5,275.167 318.5,274.5C 318.5,271.833 318.5,269.167 318.5,266.5C 313.833,266.5 309.167,266.5 304.5,266.5 Z"/></g>
<g><path style="opacity:0.96" fill="#d32ffc" d="M 511.5,269.5 C 511.5,276.167 511.5,282.833 511.5,289.5C 484.828,289.488 458.161,289.821 431.5,290.5C 431.5,283.833 431.5,277.167 431.5,270.5C 458.171,270.433 484.837,270.1 511.5,269.5 Z"/></g>
<g><path style="opacity:1" fill="#d645fc" d="M 274.5,268.5 C 275.489,273.975 275.822,279.642 275.5,285.5C 271.774,285.823 268.107,285.489 264.5,284.5C 267.844,279.139 271.178,273.805 274.5,268.5 Z"/></g>
<g><path style="opacity:1" fill="#e78cfd" d="M 274.5,292.5 C 275.468,294.607 275.802,296.941 275.5,299.5C 278.167,299.5 280.833,299.5 283.5,299.5C 280.713,300.477 277.713,300.81 274.5,300.5C 274.5,297.833 274.5,295.167 274.5,292.5 Z"/></g>
<g><path style="opacity:0.974" fill="#b843d6" d="M 187.5,299.5 C 195.833,299.5 204.167,299.5 212.5,299.5C 204.684,300.492 196.684,300.826 188.5,300.5C 188.5,306.833 188.5,313.167 188.5,319.5C 181.833,319.5 175.167,319.5 168.5,319.5C 168.5,319.167 168.5,318.833 168.5,318.5C 174.833,318.5 181.167,318.5 187.5,318.5C 187.5,312.167 187.5,305.833 187.5,299.5 Z"/></g>
<g><path style="opacity:0.952" fill="#d330fc" d="M 422.5,334.5 C 448.163,343.11 473.496,352.61 498.5,363C 496.236,369.028 493.569,374.861 490.5,380.5C 466.283,371.039 441.95,361.872 417.5,353C 416.978,352.439 416.645,351.772 416.5,351C 418.931,345.641 420.931,340.141 422.5,334.5 Z"/></g>
<g><path style="opacity:0.947" fill="#d330fc" d="M 82.5,338.5 C 86.059,343.939 89.3924,349.606 92.5,355.5C 69.9924,367.921 47.3258,380.088 24.5,392C 23.0563,392.781 21.723,392.614 20.5,391.5C 17.5788,386.659 14.9121,381.659 12.5,376.5C 12.7093,375.914 13.0426,375.414 13.5,375C 36.878,363.314 59.878,351.147 82.5,338.5 Z"/></g>
<g><path style="opacity:0.953" fill="#d330fc" d="M 391.5,395.5 C 393.255,396.072 394.922,396.906 396.5,398C 414.906,414.285 433.406,430.451 452,446.5C 452.667,447.167 452.667,447.833 452,448.5C 448.283,452.762 444.45,456.928 440.5,461C 439.833,461.667 439.167,461.667 438.5,461C 419,444.167 399.5,427.333 380,410.5C 379.333,409.833 379.333,409.167 380,408.5C 384.413,404.592 388.247,400.259 391.5,395.5 Z"/></g>
<g><path style="opacity:0.955" fill="#d330fc" d="M 122.5,407.5 C 123.552,407.351 124.552,407.517 125.5,408C 129.643,412.233 133.977,416.233 138.5,420C 121.316,438.216 104.483,456.716 88,475.5C 86.8867,477.329 85.3867,478.163 83.5,478C 79.2384,474.283 75.0718,470.45 71,466.5C 70.3333,465.833 70.3333,465.167 71,464.5C 88.6492,445.814 105.816,426.814 122.5,407.5 Z"/></g>
<g><path style="opacity:0.947" fill="#d330fc" d="M 325.5,441.5 C 326.675,441.281 327.675,441.614 328.5,442.5C 341.04,465.081 353.707,487.581 366.5,510C 361.156,513.674 355.49,516.84 349.5,519.5C 336.5,496.833 323.5,474.167 310.5,451.5C 315.357,447.908 320.357,444.575 325.5,441.5 Z"/></g>
<g><path style="opacity:0.953" fill="#d330fc" d="M 181.5,443.5 C 187.808,445.984 194.141,448.484 200.5,451C 190.338,475.483 180.171,499.983 170,524.5C 163.787,522.309 157.953,519.476 152.5,516C 162.467,491.929 172.133,467.762 181.5,443.5 Z"/></g>
<g><path style="opacity:0.957" fill="#d22ffb" d="M 263.5,531.5 C 256.833,531.5 250.167,531.5 243.5,531.5C 244.509,505.511 245.175,479.511 245.5,453.5C 252.167,453.5 258.833,453.5 265.5,453.5C 264.707,479.496 264.041,505.496 263.5,531.5 Z"/></g>
</svg>
