<?xml version="1.0" encoding="UTF-8"?>
<!DOCTYPE svg PUBLIC "-//W3C//DTD SVG 1.1//EN" "http://www.w3.org/Graphics/SVG/1.1/DTD/svg11.dtd">
<svg xmlns="http://www.w3.org/2000/svg" version="1.1" width="512px" height="797px" style="shape-rendering:geometricPrecision; text-rendering:geometricPrecision; image-rendering:optimizeQuality; fill-rule:evenodd; clip-rule:evenodd" xmlns:xlink="http://www.w3.org/1999/xlink">
<g><path style="opacity:0.997" fill="#909090" d="M 253.5,-0.5 C 254.833,-0.5 256.167,-0.5 257.5,-0.5C 314.075,42.4663 371.075,84.9663 428.5,127C 422.833,127.333 417.167,127.667 411.5,128C 468.9,156.288 502.233,202.121 511.5,265.5C 511.5,290.5 511.5,315.5 511.5,340.5C 492.5,340.5 473.5,340.5 454.5,340.5C 454.667,318.497 454.5,296.497 454,274.5C 448.993,230.841 426.827,199.341 387.5,180C 379.082,176.527 370.415,173.861 361.5,172C 326.195,170.857 290.862,170.357 255.5,170.5C 220.138,170.357 184.805,170.857 149.5,172C 103.569,182.598 73.7358,210.431 60,255.5C 58.4828,261.752 57.4828,268.086 57,274.5C 56.5,296.497 56.3334,318.497 56.5,340.5C 37.5,340.5 18.5,340.5 -0.5,340.5C -0.5,315.833 -0.5,291.167 -0.5,266.5C 8.46156,202.746 41.7949,156.579 99.5,128C 93.8333,127.667 88.1667,127.333 82.5,127C 139.925,84.9663 196.925,42.4663 253.5,-0.5 Z"/></g>
<g><path style="opacity:1" fill="#8f8f8f" d="M 454.5,340.5 C 454.5,356.167 454.5,371.833 454.5,387.5C 432.157,387.167 409.823,387.5 387.5,388.5C 385.04,410.104 383.04,431.77 381.5,453.5C 388.267,453.85 394.934,454.85 401.5,456.5C 402.833,456.333 404.167,456.167 405.5,456C 417.802,445.647 429.636,446.147 441,457.5C 444.835,464.848 445.502,472.515 443,480.5C 437.343,490.287 428.843,494.12 417.5,492C 410.034,489.375 405.701,484.208 404.5,476.5C 396.167,476.5 387.833,476.5 379.5,476.5C 380.442,494.182 389.442,505.682 406.5,511C 423.705,515.861 439.705,513.361 454.5,503.5C 454.5,525.167 454.5,546.833 454.5,568.5C 454.667,590.503 454.5,612.503 454,634.5C 446.284,689.549 415.451,723.715 361.5,737C 326.365,738.147 291.199,738.647 256,738.5C 220.472,738.643 184.972,738.143 149.5,737C 95.5494,723.715 64.7161,689.549 57,634.5C 56.5,612.503 56.3334,590.503 56.5,568.5C 56.5,549.5 56.5,530.5 56.5,511.5C 81.5,511.5 106.5,511.5 131.5,511.5C 131.5,504.167 131.5,496.833 131.5,489.5C 114.167,489.5 96.8333,489.5 79.5,489.5C 90.1611,478.006 101.328,467.006 113,456.5C 120.627,448.921 125.96,439.921 129,429.5C 130.4,403.882 118.233,389.382 92.5,386C 79.5435,384.224 67.5435,386.724 56.5,393.5C 56.5,375.833 56.5,358.167 56.5,340.5C 56.3334,318.497 56.5,296.497 57,274.5C 57.4828,268.086 58.4828,261.752 60,255.5C 73.7358,210.431 103.569,182.598 149.5,172C 184.805,170.857 220.138,170.357 255.5,170.5C 290.862,170.357 326.195,170.857 361.5,172C 370.415,173.861 379.082,176.527 387.5,180C 426.827,199.341 448.993,230.841 454,274.5C 454.5,296.497 454.667,318.497 454.5,340.5 Z"/></g>
<g><path style="opacity:1" fill="#000000" d="M -0.5,340.5 C 18.5,340.5 37.5,340.5 56.5,340.5C 56.5,358.167 56.5,375.833 56.5,393.5C 46.6858,401.8 41.6858,412.467 41.5,425.5C 46.5,425.5 51.5,425.5 56.5,425.5C 56.5,443.5 56.5,461.5 56.5,479.5C 51.8604,483.473 47.5271,487.806 43.5,492.5C 42.5098,498.645 42.1765,504.978 42.5,511.5C 47.1667,511.5 51.8333,511.5 56.5,511.5C 56.5,530.5 56.5,549.5 56.5,568.5C 37.5,568.5 18.5,568.5 -0.5,568.5C -0.5,492.5 -0.5,416.5 -0.5,340.5 Z"/></g>
<g><path style="opacity:1" fill="#000000" d="M 454.5,340.5 C 473.5,340.5 492.5,340.5 511.5,340.5C 511.5,416.5 511.5,492.5 511.5,568.5C 492.5,568.5 473.5,568.5 454.5,568.5C 454.5,546.833 454.5,525.167 454.5,503.5C 469.723,489.464 473.89,472.464 467,452.5C 464.009,446.152 459.842,440.819 454.5,436.5C 454.5,427.167 454.5,417.833 454.5,408.5C 457.5,408.5 460.5,408.5 463.5,408.5C 463.5,401.5 463.5,394.5 463.5,387.5C 460.5,387.5 457.5,387.5 454.5,387.5C 454.5,371.833 454.5,356.167 454.5,340.5 Z"/></g>
<g><path style="opacity:1" fill="#fdfdfd" d="M 79.5,489.5 C 96.3251,490.497 113.325,490.83 130.5,490.5C 130.5,497.167 130.5,503.833 130.5,510.5C 101.5,510.5 72.5,510.5 43.5,510.5C 43.5,504.5 43.5,498.5 43.5,492.5C 47.5271,487.806 51.8604,483.473 56.5,479.5C 69.7971,467.372 82.9638,455.038 96,442.5C 102.062,435.98 104.729,428.313 104,419.5C 100.791,410.72 94.4572,406.387 85,406.5C 73.2573,407.409 67.0907,413.743 66.5,425.5C 63.1667,425.5 59.8333,425.5 56.5,425.5C 51.5,425.5 46.5,425.5 41.5,425.5C 41.6858,412.467 46.6858,401.8 56.5,393.5C 67.5435,386.724 79.5435,384.224 92.5,386C 118.233,389.382 130.4,403.882 129,429.5C 125.96,439.921 120.627,448.921 113,456.5C 101.328,467.006 90.1611,478.006 79.5,489.5 Z"/></g>
<g><path style="opacity:1" fill="#fdfdfd" d="M 187.5,385.5 C 201.13,384.242 213.796,387.075 225.5,394C 239.797,405.352 242.964,419.186 235,435.5C 230.184,441.492 224.017,445.326 216.5,447C 241.117,453.4 248.951,468.566 240,492.5C 229.048,506.558 214.548,513.558 196.5,513.5C 179.928,513.627 166.095,507.627 155,495.5C 151.144,489.743 149.311,483.409 149.5,476.5C 158.167,476.5 166.833,476.5 175.5,476.5C 178.149,486.932 184.982,491.932 196,491.5C 211.789,490.731 218.122,482.731 215,467.5C 210.781,462.14 205.281,458.973 198.5,458C 193.177,457.501 187.844,457.334 182.5,457.5C 182.5,451.167 182.5,444.833 182.5,438.5C 188.509,438.666 194.509,438.499 200.5,438C 213.225,433.376 216.725,424.876 211,412.5C 202.43,405.577 193.263,404.744 183.5,410C 179.176,413.155 176.843,417.322 176.5,422.5C 168.167,422.5 159.833,422.5 151.5,422.5C 151.979,408.037 158.645,397.537 171.5,391C 176.846,388.83 182.179,386.997 187.5,385.5 Z"/></g>
<g><path style="opacity:1" fill="#fdfdfd" d="M 312.5,387.5 C 323.5,387.5 334.5,387.5 345.5,387.5C 345.5,414.5 345.5,441.5 345.5,468.5C 350.5,468.5 355.5,468.5 360.5,468.5C 360.5,475.5 360.5,482.5 360.5,489.5C 355.5,489.5 350.5,489.5 345.5,489.5C 345.5,496.833 345.5,504.167 345.5,511.5C 337.167,511.5 328.833,511.5 320.5,511.5C 320.5,504.167 320.5,496.833 320.5,489.5C 300.5,489.5 280.5,489.5 260.5,489.5C 260.068,481.721 260.568,474.054 262,466.5C 279.057,440.283 295.89,413.95 312.5,387.5 Z"/></g>
<g><path style="opacity:1" fill="#fdfdfd" d="M 454.5,387.5 C 457.5,387.5 460.5,387.5 463.5,387.5C 463.5,394.5 463.5,401.5 463.5,408.5C 460.5,408.5 457.5,408.5 454.5,408.5C 439.167,408.5 423.833,408.5 408.5,408.5C 408.16,418.236 407.16,427.902 405.5,437.5C 405.833,438.167 406.167,438.833 406.5,439.5C 415.642,430.492 426.642,427.325 439.5,430C 445.013,431.092 450.013,433.259 454.5,436.5C 459.842,440.819 464.009,446.152 467,452.5C 473.89,472.464 469.723,489.464 454.5,503.5C 439.705,513.361 423.705,515.861 406.5,511C 389.442,505.682 380.442,494.182 379.5,476.5C 387.833,476.5 396.167,476.5 404.5,476.5C 405.701,484.208 410.034,489.375 417.5,492C 428.843,494.12 437.343,490.287 443,480.5C 445.502,472.515 444.835,464.848 441,457.5C 429.636,446.147 417.802,445.647 405.5,456C 404.167,456.167 402.833,456.333 401.5,456.5C 394.934,454.85 388.267,453.85 381.5,453.5C 383.04,431.77 385.04,410.104 387.5,388.5C 409.823,387.5 432.157,387.167 454.5,387.5 Z"/></g>
<g><path style="opacity:1" fill="#8f8f8f" d="M 56.5,479.5 C 56.5,461.5 56.5,443.5 56.5,425.5C 59.8333,425.5 63.1667,425.5 66.5,425.5C 67.0907,413.743 73.2573,407.409 85,406.5C 94.4572,406.387 100.791,410.72 104,419.5C 104.729,428.313 102.062,435.98 96,442.5C 82.9638,455.038 69.7971,467.372 56.5,479.5 Z"/></g>
<g><path style="opacity:1" fill="#919191" d="M 454.5,408.5 C 454.5,417.833 454.5,427.167 454.5,436.5C 450.013,433.259 445.013,431.092 439.5,430C 426.642,427.325 415.642,430.492 406.5,439.5C 406.167,438.833 405.833,438.167 405.5,437.5C 407.16,427.902 408.16,418.236 408.5,408.5C 423.833,408.5 439.167,408.5 454.5,408.5 Z"/></g>
<g><path style="opacity:1" fill="#8f8f8f" d="M 319.5,416.5 C 320.497,433.659 320.83,450.992 320.5,468.5C 309.48,468.832 298.48,468.499 287.5,467.5C 297.927,450.304 308.594,433.304 319.5,416.5 Z"/></g>
<g><path style="opacity:1" fill="#dfdfdf" d="M 79.5,489.5 C 96.8333,489.5 114.167,489.5 131.5,489.5C 131.5,496.833 131.5,504.167 131.5,511.5C 106.5,511.5 81.5,511.5 56.5,511.5C 51.8333,511.5 47.1667,511.5 42.5,511.5C 42.1765,504.978 42.5098,498.645 43.5,492.5C 43.5,498.5 43.5,504.5 43.5,510.5C 72.5,510.5 101.5,510.5 130.5,510.5C 130.5,503.833 130.5,497.167 130.5,490.5C 113.325,490.83 96.3251,490.497 79.5,489.5 Z"/></g>
<g><path style="opacity:0.998" fill="#909090" d="M -0.5,568.5 C 18.5,568.5 37.5,568.5 56.5,568.5C 56.3334,590.503 56.5,612.503 57,634.5C 64.7161,689.549 95.5494,723.715 149.5,737C 184.972,738.143 220.472,738.643 256,738.5C 291.199,738.647 326.365,738.147 361.5,737C 415.451,723.715 446.284,689.549 454,634.5C 454.5,612.503 454.667,590.503 454.5,568.5C 473.5,568.5 492.5,568.5 511.5,568.5C 511.5,593.5 511.5,618.5 511.5,643.5C 501.79,708.697 467.124,755.197 407.5,783C 389.07,790.514 370.07,795.014 350.5,796.5C 287.167,796.5 223.833,796.5 160.5,796.5C 91.9512,789.765 42.7845,755.432 13,693.5C 6.28729,677.307 1.78729,660.64 -0.5,643.5C -0.5,618.5 -0.5,593.5 -0.5,568.5 Z"/></g>
</svg>
