<?xml version="1.0" encoding="UTF-8"?>
<!DOCTYPE svg PUBLIC "-//W3C//DTD SVG 1.1//EN" "http://www.w3.org/Graphics/SVG/1.1/DTD/svg11.dtd">
<svg xmlns="http://www.w3.org/2000/svg" version="1.1" width="512px" height="797px" style="shape-rendering:geometricPrecision; text-rendering:geometricPrecision; image-rendering:optimizeQuality; fill-rule:evenodd; clip-rule:evenodd" xmlns:xlink="http://www.w3.org/1999/xlink">
<g><path style="opacity:0.998" fill="#fc0909" d="M 253.5,-0.5 C 254.833,-0.5 256.167,-0.5 257.5,-0.5C 314.075,42.4663 371.075,84.9663 428.5,127C 422.833,127.333 417.167,127.667 411.5,128C 468.918,156.342 502.251,202.176 511.5,265.5C 511.5,290.5 511.5,315.5 511.5,340.5C 492.5,340.5 473.5,340.5 454.5,340.5C 454.5,356.167 454.5,371.833 454.5,387.5C 432.157,387.167 409.823,387.5 387.5,388.5C 385.141,410.117 383.141,431.783 381.5,453.5C 388.309,454.544 395.142,455.544 402,456.5C 403.167,456.333 404.333,456.167 405.5,456C 415.951,446.789 426.951,446.122 438.5,454C 445.543,463.547 446.376,473.714 441,484.5C 430.725,494.315 419.892,494.981 408.5,486.5C 406.187,483.563 404.854,480.23 404.5,476.5C 396.167,476.5 387.833,476.5 379.5,476.5C 380.483,492.613 388.483,503.78 403.5,510C 421.64,516.066 438.64,513.9 454.5,503.5C 454.5,525.167 454.5,546.833 454.5,568.5C 473.5,568.5 492.5,568.5 511.5,568.5C 511.5,593.5 511.5,618.5 511.5,643.5C 499.966,717.536 458.632,766.369 387.5,790C 375.853,793.05 364.186,795.216 352.5,796.5C 287.833,796.5 223.167,796.5 158.5,796.5C 99.0503,790.368 53.5503,762.035 22,711.5C 9.95533,690.2 2.45533,667.534 -0.5,643.5C -0.5,618.5 -0.5,593.5 -0.5,568.5C 18.5,568.5 37.5,568.5 56.5,568.5C 56.5,549.5 56.5,530.5 56.5,511.5C 81.1667,511.5 105.833,511.5 130.5,511.5C 131.492,504.352 131.825,497.019 131.5,489.5C 114.167,489.5 96.8333,489.5 79.5,489.5C 89.4946,478.672 99.9946,468.339 111,458.5C 116.15,452.862 120.817,446.862 125,440.5C 134.85,417.043 128.35,399.876 105.5,389C 88.3842,383.15 72.0509,384.65 56.5,393.5C 56.5,375.833 56.5,358.167 56.5,340.5C 37.5,340.5 18.5,340.5 -0.5,340.5C -0.5,315.5 -0.5,290.5 -0.5,265.5C 8.75371,202.161 42.087,156.328 99.5,128C 93.8333,127.667 88.1667,127.333 82.5,127C 139.925,84.9663 196.925,42.4663 253.5,-0.5 Z"/></g>
<g><path style="opacity:1" fill="#010000" d="M -0.5,340.5 C 18.5,340.5 37.5,340.5 56.5,340.5C 56.5,358.167 56.5,375.833 56.5,393.5C 46.6671,401.835 41.6671,412.502 41.5,425.5C 46.5,425.5 51.5,425.5 56.5,425.5C 56.5,443.5 56.5,461.5 56.5,479.5C 51.8954,483.602 47.3954,487.936 43,492.5C 42.5005,498.825 42.3338,505.158 42.5,511.5C 46.8333,511.5 51.1667,511.5 55.5,511.5C 55.5,530.167 55.5,548.833 55.5,567.5C 36.8333,567.5 18.1667,567.5 -0.5,567.5C -0.5,491.833 -0.5,416.167 -0.5,340.5 Z"/></g>
<g><path style="opacity:1" fill="#010000" d="M 511.5,340.5 C 511.5,416.167 511.5,491.833 511.5,567.5C 492.833,567.5 474.167,567.5 455.5,567.5C 455.5,546.167 455.5,524.833 455.5,503.5C 473.157,484.619 474.99,464.285 461,442.5C 458.937,440.266 456.771,438.266 454.5,436.5C 454.5,427.5 454.5,418.5 454.5,409.5C 457.5,409.5 460.5,409.5 463.5,409.5C 463.825,401.981 463.492,394.648 462.5,387.5C 459.833,387.5 457.167,387.5 454.5,387.5C 454.5,371.833 454.5,356.167 454.5,340.5C 473.5,340.5 492.5,340.5 511.5,340.5 Z"/></g>
<g><path style="opacity:1" fill="#fefdfc" d="M 79.5,489.5 C 96.3251,490.497 113.325,490.83 130.5,490.5C 130.5,497.5 130.5,504.5 130.5,511.5C 105.833,511.5 81.1667,511.5 56.5,511.5C 56.1667,511.5 55.8333,511.5 55.5,511.5C 51.1667,511.5 46.8333,511.5 42.5,511.5C 42.3338,505.158 42.5005,498.825 43,492.5C 47.3954,487.936 51.8954,483.602 56.5,479.5C 70.7781,467.086 84.6114,454.086 98,440.5C 100.254,436.993 102.254,433.327 104,429.5C 105.059,412.894 97.2256,405.394 80.5,407C 71.1086,409.562 66.442,415.728 66.5,425.5C 63.1667,425.5 59.8333,425.5 56.5,425.5C 51.5,425.5 46.5,425.5 41.5,425.5C 41.6671,412.502 46.6671,401.835 56.5,393.5C 72.0509,384.65 88.3842,383.15 105.5,389C 128.35,399.876 134.85,417.043 125,440.5C 120.817,446.862 116.15,452.862 111,458.5C 99.9946,468.339 89.4946,478.672 79.5,489.5 Z"/></g>
<g><path style="opacity:1" fill="#fffcfc" d="M 187.5,385.5 C 201.16,384.162 213.827,386.996 225.5,394C 239.799,405.358 242.966,419.191 235,435.5C 230.073,441.382 223.906,445.382 216.5,447.5C 240.187,452.865 248.353,467.198 241,490.5C 231.956,504.279 219.122,511.779 202.5,513C 183.593,515.256 167.759,509.422 155,495.5C 151.144,489.743 149.311,483.409 149.5,476.5C 158.167,476.5 166.833,476.5 175.5,476.5C 176.191,483.363 179.858,487.863 186.5,490C 194.437,492.306 202.103,491.64 209.5,488C 218.02,480.319 218.686,471.986 211.5,463C 202.455,458.076 192.788,456.243 182.5,457.5C 182.5,451.167 182.5,444.833 182.5,438.5C 188.509,438.666 194.509,438.499 200.5,438C 213.348,433.473 216.848,424.973 211,412.5C 201.479,404.834 191.645,404.501 181.5,411.5C 178.762,414.309 177.096,417.642 176.5,421.5C 168.167,421.5 159.833,421.5 151.5,421.5C 152.335,409.155 158.002,399.655 168.5,393C 174.604,389.583 180.937,387.083 187.5,385.5 Z"/></g>
<g><path style="opacity:1" fill="#fffdfd" d="M 312.5,387.5 C 323.5,387.5 334.5,387.5 345.5,387.5C 345.5,414.5 345.5,441.5 345.5,468.5C 350.5,468.5 355.5,468.5 360.5,468.5C 360.5,475.5 360.5,482.5 360.5,489.5C 355.5,489.5 350.5,489.5 345.5,489.5C 345.5,496.833 345.5,504.167 345.5,511.5C 337.167,511.5 328.833,511.5 320.5,511.5C 320.5,504.167 320.5,496.833 320.5,489.5C 300.5,489.5 280.5,489.5 260.5,489.5C 260.334,482.492 260.5,475.492 261,468.5C 278.177,441.472 295.344,414.472 312.5,387.5 Z"/></g>
<g><path style="opacity:1" fill="#fefcfc" d="M 454.5,387.5 C 457.167,387.5 459.833,387.5 462.5,387.5C 462.5,394.5 462.5,401.5 462.5,408.5C 459.833,408.5 457.167,408.5 454.5,408.5C 439.496,408.333 424.496,408.5 409.5,409C 408.085,417.409 407.085,425.909 406.5,434.5C 405.212,436.035 405.212,437.701 406.5,439.5C 407.107,439.376 407.44,439.043 407.5,438.5C 417.97,429.499 429.97,426.999 443.5,431C 447.472,432.319 451.139,434.153 454.5,436.5C 456.771,438.266 458.937,440.266 461,442.5C 474.99,464.285 473.157,484.619 455.5,503.5C 455.167,503.5 454.833,503.5 454.5,503.5C 438.64,513.9 421.64,516.066 403.5,510C 388.483,503.78 380.483,492.613 379.5,476.5C 387.833,476.5 396.167,476.5 404.5,476.5C 404.854,480.23 406.187,483.563 408.5,486.5C 419.892,494.981 430.725,494.315 441,484.5C 446.376,473.714 445.543,463.547 438.5,454C 426.951,446.122 415.951,446.789 405.5,456C 404.333,456.167 403.167,456.333 402,456.5C 395.142,455.544 388.309,454.544 381.5,453.5C 383.141,431.783 385.141,410.117 387.5,388.5C 409.823,387.5 432.157,387.167 454.5,387.5 Z"/></g>
<g><path style="opacity:1" fill="#a8a7a7" d="M 462.5,387.5 C 463.492,394.648 463.825,401.981 463.5,409.5C 460.5,409.5 457.5,409.5 454.5,409.5C 454.5,409.167 454.5,408.833 454.5,408.5C 457.167,408.5 459.833,408.5 462.5,408.5C 462.5,401.5 462.5,394.5 462.5,387.5 Z"/></g>
<g><path style="opacity:1" fill="#fc0f0c" d="M 56.5,479.5 C 56.5,461.5 56.5,443.5 56.5,425.5C 59.8333,425.5 63.1667,425.5 66.5,425.5C 66.442,415.728 71.1086,409.562 80.5,407C 97.2256,405.394 105.059,412.894 104,429.5C 102.254,433.327 100.254,436.993 98,440.5C 84.6114,454.086 70.7781,467.086 56.5,479.5 Z"/></g>
<g><path style="opacity:1" fill="#fc1711" d="M 454.5,408.5 C 454.5,408.833 454.5,409.167 454.5,409.5C 454.5,418.5 454.5,427.5 454.5,436.5C 451.139,434.153 447.472,432.319 443.5,431C 429.97,426.999 417.97,429.499 407.5,438.5C 406.566,437.432 406.232,436.099 406.5,434.5C 407.085,425.909 408.085,417.409 409.5,409C 424.496,408.5 439.496,408.333 454.5,408.5 Z"/></g>
<g><path style="opacity:1" fill="#fc100c" d="M 319.5,416.5 C 320.497,433.659 320.83,450.992 320.5,468.5C 309.48,468.832 298.48,468.499 287.5,467.5C 298.193,450.483 308.86,433.483 319.5,416.5 Z"/></g>
<g><path style="opacity:1" fill="#fda4a4" d="M 319.5,416.5 C 319.56,415.957 319.893,415.624 320.5,415.5C 321.827,433.329 321.827,450.995 320.5,468.5C 320.83,450.992 320.497,433.659 319.5,416.5 Z"/></g>
<g><path style="opacity:1" fill="#fe8a88" d="M 406.5,434.5 C 406.232,436.099 406.566,437.432 407.5,438.5C 407.44,439.043 407.107,439.376 406.5,439.5C 405.212,437.701 405.212,436.035 406.5,434.5 Z"/></g>
<g><path style="opacity:1" fill="#ffa8a6" d="M 79.5,489.5 C 96.8333,489.5 114.167,489.5 131.5,489.5C 131.825,497.019 131.492,504.352 130.5,511.5C 130.5,504.5 130.5,497.5 130.5,490.5C 113.325,490.83 96.3251,490.497 79.5,489.5 Z"/></g>
<g><path style="opacity:1" fill="#200101" d="M 55.5,511.5 C 55.8333,511.5 56.1667,511.5 56.5,511.5C 56.5,530.5 56.5,549.5 56.5,568.5C 37.5,568.5 18.5,568.5 -0.5,568.5C -0.5,568.167 -0.5,567.833 -0.5,567.5C 18.1667,567.5 36.8333,567.5 55.5,567.5C 55.5,548.833 55.5,530.167 55.5,511.5 Z"/></g>
<g><path style="opacity:1" fill="#200202" d="M 454.5,503.5 C 454.833,503.5 455.167,503.5 455.5,503.5C 455.5,524.833 455.5,546.167 455.5,567.5C 474.167,567.5 492.833,567.5 511.5,567.5C 511.5,567.833 511.5,568.167 511.5,568.5C 492.5,568.5 473.5,568.5 454.5,568.5C 454.5,546.833 454.5,525.167 454.5,503.5 Z"/></g>
</svg>
