<?xml version="1.0" encoding="UTF-8"?>
<!DOCTYPE svg PUBLIC "-//W3C//DTD SVG 1.1//EN" "http://www.w3.org/Graphics/SVG/1.1/DTD/svg11.dtd">
<svg xmlns="http://www.w3.org/2000/svg" version="1.1" width="512px" height="797px" style="shape-rendering:geometricPrecision; text-rendering:geometricPrecision; image-rendering:optimizeQuality; fill-rule:evenodd; clip-rule:evenodd" xmlns:xlink="http://www.w3.org/1999/xlink">
<g><path style="opacity:0.998" fill="#0587ff" d="M 253.5,-0.5 C 254.833,-0.5 256.167,-0.5 257.5,-0.5C 314.075,42.4663 371.075,84.9663 428.5,127C 423.679,128.279 418.679,128.946 413.5,129C 457.779,150.617 487.945,184.784 504,231.5C 507.354,242.786 509.854,254.119 511.5,265.5C 511.5,290.5 511.5,315.5 511.5,340.5C 492.5,340.5 473.5,340.5 454.5,340.5C 454.5,356.167 454.5,371.833 454.5,387.5C 432.167,387.5 409.833,387.5 387.5,387.5C 385.32,409.482 383.32,431.482 381.5,453.5C 388.255,453.855 394.921,454.855 401.5,456.5C 402.833,456.333 404.167,456.167 405.5,456C 415.938,446.791 426.938,446.124 438.5,454C 446.713,465.568 446.38,476.902 437.5,488C 426.237,494.941 416.07,493.774 407,484.5C 405.293,482.091 404.46,479.425 404.5,476.5C 396.016,475.507 387.349,475.174 378.5,475.5C 378.205,477.735 378.539,479.735 379.5,481.5C 381.771,492.609 387.771,501.109 397.5,507C 401.723,508.944 406.056,510.611 410.5,512C 426.443,515.01 441.109,512.177 454.5,503.5C 454.5,525.167 454.5,546.833 454.5,568.5C 473.5,568.5 492.5,568.5 511.5,568.5C 511.5,593.5 511.5,618.5 511.5,643.5C 503.543,701.926 474.21,746.092 423.5,776C 403.244,786.587 381.911,793.42 359.5,796.5C 290.167,796.5 220.833,796.5 151.5,796.5C 87.0265,786.841 40.8598,752.507 13,693.5C 6.44001,676.92 1.94001,659.92 -0.5,642.5C -0.5,617.833 -0.5,593.167 -0.5,568.5C 18.5,568.5 37.5,568.5 56.5,568.5C 56.5,549.5 56.5,530.5 56.5,511.5C 81.1667,511.5 105.833,511.5 130.5,511.5C 131.492,504.352 131.825,497.019 131.5,489.5C 114.167,489.5 96.8333,489.5 79.5,489.5C 92.1314,476.368 104.965,463.368 118,450.5C 126.926,440.133 130.593,428.133 129,414.5C 122.786,396.953 110.286,387.453 91.5,386C 78.8685,384.243 67.2019,386.743 56.5,393.5C 56.5,375.833 56.5,358.167 56.5,340.5C 37.5,340.5 18.5,340.5 -0.5,340.5C -0.5,315.833 -0.5,291.167 -0.5,266.5C 8.23945,203.597 40.9061,157.763 97.5,129C 92.3211,128.946 87.3211,128.279 82.5,127C 139.925,84.9663 196.925,42.4663 253.5,-0.5 Z"/></g>
<g><path style="opacity:0.998" fill="#000001" d="M -0.5,340.5 C 18.5,340.5 37.5,340.5 56.5,340.5C 56.5,358.167 56.5,375.833 56.5,393.5C 46.6802,401.811 41.6802,412.477 41.5,425.5C 46.5,425.5 51.5,425.5 56.5,425.5C 56.5,443.5 56.5,461.5 56.5,479.5C 52.1927,483.472 47.8593,487.472 43.5,491.5C 42.5093,497.979 42.176,504.646 42.5,511.5C 47.1667,511.5 51.8333,511.5 56.5,511.5C 56.5,530.5 56.5,549.5 56.5,568.5C 37.5,568.5 18.5,568.5 -0.5,568.5C -0.5,492.5 -0.5,416.5 -0.5,340.5 Z"/></g>
<g><path style="opacity:1" fill="#0a1b2e" d="M 511.5,340.5 C 511.5,340.833 511.5,341.167 511.5,341.5C 492.833,341.5 474.167,341.5 455.5,341.5C 455.5,356.5 455.5,371.5 455.5,386.5C 458.385,386.194 461.052,386.527 463.5,387.5C 460.5,387.5 457.5,387.5 454.5,387.5C 454.5,371.833 454.5,356.167 454.5,340.5C 473.5,340.5 492.5,340.5 511.5,340.5 Z"/></g>
<g><path style="opacity:1" fill="#000001" d="M 511.5,341.5 C 511.5,417.167 511.5,492.833 511.5,568.5C 492.5,568.5 473.5,568.5 454.5,568.5C 454.5,546.833 454.5,525.167 454.5,503.5C 469.719,489.424 473.886,472.424 467,452.5C 464.009,446.152 459.842,440.819 454.5,436.5C 454.5,427.5 454.5,418.5 454.5,409.5C 454.5,409.167 454.5,408.833 454.5,408.5C 457.5,408.5 460.5,408.5 463.5,408.5C 463.5,401.5 463.5,394.5 463.5,387.5C 461.052,386.527 458.385,386.194 455.5,386.5C 455.5,371.5 455.5,356.5 455.5,341.5C 474.167,341.5 492.833,341.5 511.5,341.5 Z"/></g>
<g><path style="opacity:1" fill="#fdfdfe" d="M 79.5,489.5 C 96.3251,490.497 113.325,490.83 130.5,490.5C 130.5,497.167 130.5,503.833 130.5,510.5C 101.5,510.5 72.5,510.5 43.5,510.5C 43.5,504.167 43.5,497.833 43.5,491.5C 47.8593,487.472 52.1927,483.472 56.5,479.5C 70.1305,467.038 83.6305,454.372 97,441.5C 102.352,435.112 104.685,427.779 104,419.5C 98.9988,408.583 90.4988,404.417 78.5,407C 70.279,410.395 66.279,416.561 66.5,425.5C 63.1667,425.5 59.8333,425.5 56.5,425.5C 51.5,425.5 46.5,425.5 41.5,425.5C 41.6802,412.477 46.6802,401.811 56.5,393.5C 67.2019,386.743 78.8685,384.243 91.5,386C 110.286,387.453 122.786,396.953 129,414.5C 130.593,428.133 126.926,440.133 118,450.5C 104.965,463.368 92.1314,476.368 79.5,489.5 Z"/></g>
<g><path style="opacity:1" fill="#fcfdff" d="M 149.5,480.5 C 149.5,479.167 149.5,477.833 149.5,476.5C 158.167,476.5 166.833,476.5 175.5,476.5C 176.191,483.363 179.858,487.863 186.5,490C 194.455,492.439 202.122,491.773 209.5,488C 218.025,480.275 218.692,471.941 211.5,463C 202.489,458.002 192.822,456.169 182.5,457.5C 182.5,451.167 182.5,444.833 182.5,438.5C 188.509,438.666 194.509,438.499 200.5,438C 211.228,434.716 215.395,427.549 213,416.5C 211.098,411.6 207.598,408.433 202.5,407C 191.254,404.294 182.754,407.794 177,417.5C 176.506,419.134 176.34,420.801 176.5,422.5C 168.167,422.5 159.833,422.5 151.5,422.5C 151.842,410.653 156.842,401.153 166.5,394C 184.739,383.362 203.406,382.695 222.5,392C 239.205,402.996 243.372,417.496 235,435.5C 230.12,441.376 223.953,445.209 216.5,447C 239.824,452.486 247.991,466.653 241,489.5C 235.885,499.945 227.719,506.779 216.5,510C 203.907,512.886 191.24,513.219 178.5,511C 162.797,506.466 153.131,496.3 149.5,480.5 Z"/></g>
<g><path style="opacity:1" fill="#fefeff" d="M 360.5,468.5 C 360.5,475.5 360.5,482.5 360.5,489.5C 355.305,489.179 350.305,489.513 345.5,490.5C 345.5,497.5 345.5,504.5 345.5,511.5C 337.167,511.5 328.833,511.5 320.5,511.5C 320.5,504.167 320.5,496.833 320.5,489.5C 300.5,489.5 280.5,489.5 260.5,489.5C 260.334,482.492 260.5,475.492 261,468.5C 278.042,441.582 295.209,414.749 312.5,388C 323.495,387.5 334.495,387.333 345.5,387.5C 345.5,414.5 345.5,441.5 345.5,468.5C 350.5,468.5 355.5,468.5 360.5,468.5 Z"/></g>
<g><path style="opacity:1" fill="#fcfdfe" d="M 454.5,387.5 C 457.5,387.5 460.5,387.5 463.5,387.5C 463.5,394.5 463.5,401.5 463.5,408.5C 460.5,408.5 457.5,408.5 454.5,408.5C 439.167,408.5 423.833,408.5 408.5,408.5C 408.5,409.5 408.5,410.5 408.5,411.5C 407.647,420.181 406.647,428.848 405.5,437.5C 405.833,438.167 406.167,438.833 406.5,439.5C 415.642,430.294 426.642,427.128 439.5,430C 445.013,431.092 450.013,433.259 454.5,436.5C 459.842,440.819 464.009,446.152 467,452.5C 473.886,472.424 469.719,489.424 454.5,503.5C 441.109,512.177 426.443,515.01 410.5,512C 406.056,510.611 401.723,508.944 397.5,507C 387.771,501.109 381.771,492.609 379.5,481.5C 379.5,479.833 379.5,478.167 379.5,476.5C 387.833,476.5 396.167,476.5 404.5,476.5C 404.46,479.425 405.293,482.091 407,484.5C 416.07,493.774 426.237,494.941 437.5,488C 446.38,476.902 446.713,465.568 438.5,454C 426.938,446.124 415.938,446.791 405.5,456C 404.167,456.167 402.833,456.333 401.5,456.5C 394.921,454.855 388.255,453.855 381.5,453.5C 383.32,431.482 385.32,409.482 387.5,387.5C 409.833,387.5 432.167,387.5 454.5,387.5 Z"/></g>
<g><path style="opacity:1" fill="#0d88ff" d="M 56.5,479.5 C 56.5,461.5 56.5,443.5 56.5,425.5C 59.8333,425.5 63.1667,425.5 66.5,425.5C 66.279,416.561 70.279,410.395 78.5,407C 90.4988,404.417 98.9988,408.583 104,419.5C 104.685,427.779 102.352,435.112 97,441.5C 83.6305,454.372 70.1305,467.038 56.5,479.5 Z"/></g>
<g><path style="opacity:1" fill="#47a6ff" d="M 454.5,408.5 C 454.5,408.833 454.5,409.167 454.5,409.5C 438.925,408.874 423.592,409.54 408.5,411.5C 408.5,410.5 408.5,409.5 408.5,408.5C 423.833,408.5 439.167,408.5 454.5,408.5 Z"/></g>
<g><path style="opacity:1" fill="#1088ff" d="M 454.5,409.5 C 454.5,418.5 454.5,427.5 454.5,436.5C 450.013,433.259 445.013,431.092 439.5,430C 426.642,427.128 415.642,430.294 406.5,439.5C 406.167,438.833 405.833,438.167 405.5,437.5C 406.647,428.848 407.647,420.181 408.5,411.5C 423.592,409.54 438.925,408.874 454.5,409.5 Z"/></g>
<g><path style="opacity:1" fill="#0d88ff" d="M 319.5,416.5 C 320.497,433.659 320.83,450.992 320.5,468.5C 309.48,468.832 298.48,468.499 287.5,467.5C 297.927,450.304 308.594,433.304 319.5,416.5 Z"/></g>
<g><path style="opacity:1" fill="#a1d2ff" d="M 319.5,416.5 C 319.56,415.957 319.893,415.624 320.5,415.5C 321.827,433.329 321.827,450.995 320.5,468.5C 320.83,450.992 320.497,433.659 319.5,416.5 Z"/></g>
<g><path style="opacity:1" fill="#47a6ff" d="M 175.5,476.5 C 166.833,476.5 158.167,476.5 149.5,476.5C 149.5,477.833 149.5,479.167 149.5,480.5C 148.549,479.081 148.216,477.415 148.5,475.5C 157.682,475.173 166.682,475.507 175.5,476.5 Z"/></g>
<g><path style="opacity:1" fill="#50a8ff" d="M 404.5,476.5 C 396.167,476.5 387.833,476.5 379.5,476.5C 379.5,478.167 379.5,479.833 379.5,481.5C 378.539,479.735 378.205,477.735 378.5,475.5C 387.349,475.174 396.016,475.507 404.5,476.5 Z"/></g>
<g><path style="opacity:1" fill="#87c5ff" d="M 79.5,489.5 C 96.8333,489.5 114.167,489.5 131.5,489.5C 131.825,497.019 131.492,504.352 130.5,511.5C 130.5,511.167 130.5,510.833 130.5,510.5C 130.5,503.833 130.5,497.167 130.5,490.5C 113.325,490.83 96.3251,490.497 79.5,489.5 Z"/></g>
<g><path style="opacity:1" fill="#2696ff" d="M 260.5,489.5 C 280.5,489.5 300.5,489.5 320.5,489.5C 320.5,496.833 320.5,504.167 320.5,511.5C 319.509,504.687 319.175,497.687 319.5,490.5C 299.66,490.83 279.993,490.497 260.5,489.5 Z"/></g>
<g><path style="opacity:1" fill="#43a1ff" d="M 360.5,468.5 C 361.492,475.648 361.825,482.981 361.5,490.5C 356.167,490.5 350.833,490.5 345.5,490.5C 350.305,489.513 355.305,489.179 360.5,489.5C 360.5,482.5 360.5,475.5 360.5,468.5 Z"/></g>
<g><path style="opacity:1" fill="#d9e5f0" d="M 43.5,491.5 C 43.5,497.833 43.5,504.167 43.5,510.5C 72.5,510.5 101.5,510.5 130.5,510.5C 130.5,510.833 130.5,511.167 130.5,511.5C 105.833,511.5 81.1667,511.5 56.5,511.5C 51.8333,511.5 47.1667,511.5 42.5,511.5C 42.176,504.646 42.5093,497.979 43.5,491.5 Z"/></g>
</svg>
