<?xml version="1.0" encoding="UTF-8"?>
<!DOCTYPE svg PUBLIC "-//W3C//DTD SVG 1.1//EN" "http://www.w3.org/Graphics/SVG/1.1/DTD/svg11.dtd">
<svg xmlns="http://www.w3.org/2000/svg" version="1.1" width="512px" height="502px" style="shape-rendering:geometricPrecision; text-rendering:geometricPrecision; image-rendering:optimizeQuality; fill-rule:evenodd; clip-rule:evenodd" xmlns:xlink="http://www.w3.org/1999/xlink">
<g><path style="opacity:0.975" fill="#000000" d="M -0.5,-0.5 C 170.167,-0.5 340.833,-0.5 511.5,-0.5C 511.5,166.833 511.5,334.167 511.5,501.5C 340.833,501.5 170.167,501.5 -0.5,501.5C -0.5,334.167 -0.5,166.833 -0.5,-0.5 Z M 239.5,40.5 C 214.326,59.5015 188.993,78.3349 163.5,97C 166.167,97.3333 168.833,97.6667 171.5,98C 143.032,111.81 125.865,134.31 120,165.5C 118.645,180.464 118.145,195.464 118.5,210.5C 118.5,218.5 118.5,226.5 118.5,234.5C 89.1667,234.5 59.8333,234.5 30.5,234.5C 30.5,166.5 30.5,98.5 30.5,30.5C 100.167,30.5 169.833,30.5 239.5,30.5C 239.5,33.8333 239.5,37.1667 239.5,40.5 Z M 391.5,210.5 C 391.882,194.794 391.382,179.128 390,163.5C 383.607,133.516 366.773,111.682 339.5,98C 342.167,97.6667 344.833,97.3333 347.5,97C 321.955,77.9489 296.289,59.1156 270.5,40.5C 270.5,37.1667 270.5,33.8333 270.5,30.5C 340.5,30.5 410.5,30.5 480.5,30.5C 480.5,98.5 480.5,166.5 480.5,234.5C 450.833,234.5 421.167,234.5 391.5,234.5C 391.5,226.5 391.5,218.5 391.5,210.5 Z M 118.5,330.5 C 117.921,347.584 118.754,364.584 121,381.5C 132.36,420.863 158.193,444.029 198.5,451C 212.163,451.5 225.829,451.667 239.5,451.5C 239.5,457.833 239.5,464.167 239.5,470.5C 169.833,470.5 100.167,470.5 30.5,470.5C 30.5,402.167 30.5,333.833 30.5,265.5C 59.8333,265.5 89.1667,265.5 118.5,265.5C 118.5,287.167 118.5,308.833 118.5,330.5 Z M 270.5,451.5 C 284.504,451.667 298.504,451.5 312.5,451C 357.578,442.589 383.745,415.756 391,370.5C 391.5,357.171 391.667,343.837 391.5,330.5C 391.5,308.833 391.5,287.167 391.5,265.5C 421.167,265.5 450.833,265.5 480.5,265.5C 480.5,333.833 480.5,402.167 480.5,470.5C 410.5,470.5 340.5,470.5 270.5,470.5C 270.5,464.167 270.5,457.833 270.5,451.5 Z"/></g>
<g><path style="opacity:0.997" fill="#0687fe" d="M 270.5,40.5 C 296.289,59.1156 321.955,77.9489 347.5,97C 344.833,97.3333 342.167,97.6667 339.5,98C 366.773,111.682 383.607,133.516 390,163.5C 391.382,179.128 391.882,194.794 391.5,210.5C 381.5,210.5 371.5,210.5 361.5,210.5C 361.5,218.5 361.5,226.5 361.5,234.5C 349.495,234.333 337.495,234.5 325.5,235C 324.234,246.76 323.234,258.594 322.5,270.5C 325.867,270.457 329.201,270.79 332.5,271.5C 335.8,269.359 339.466,268.025 343.5,267.5C 353.756,268.654 357.59,274.321 355,284.5C 351.268,290.046 346.101,291.879 339.5,290C 336.8,288.143 335.134,285.643 334.5,282.5C 330.03,281.514 325.363,281.181 320.5,281.5C 320.232,283.099 320.566,284.432 321.5,285.5C 323.66,293.825 328.993,298.991 337.5,301C 346.068,302.356 354.068,300.856 361.5,296.5C 361.5,307.833 361.5,319.167 361.5,330.5C 371.5,330.5 381.5,330.5 391.5,330.5C 391.667,343.837 391.5,357.171 391,370.5C 383.745,415.756 357.578,442.589 312.5,451C 298.504,451.5 284.504,451.667 270.5,451.5C 260.167,451.5 249.833,451.5 239.5,451.5C 225.829,451.667 212.163,451.5 198.5,451C 158.193,444.029 132.36,420.863 121,381.5C 118.754,364.584 117.921,347.584 118.5,330.5C 129.167,330.5 139.833,330.5 150.5,330.5C 150.5,320.5 150.5,310.5 150.5,300.5C 163.5,300.5 176.5,300.5 189.5,300.5C 189.5,296.833 189.5,293.167 189.5,289.5C 180.475,289.832 171.475,289.498 162.5,288.5C 170.489,281.344 177.989,273.677 185,265.5C 192.564,250.467 188.398,240.301 172.5,235C 167.5,234.333 162.5,234.333 157.5,235C 154.861,235.653 152.527,236.82 150.5,238.5C 150.5,229.167 150.5,219.833 150.5,210.5C 139.833,210.5 129.167,210.5 118.5,210.5C 118.145,195.464 118.645,180.464 120,165.5C 125.865,134.31 143.032,111.81 171.5,98C 168.833,97.6667 166.167,97.3333 163.5,97C 188.993,78.3349 214.326,59.5015 239.5,40.5C 245.123,37.3471 250.457,33.6804 255.5,29.5C 260.352,33.4202 265.352,37.0869 270.5,40.5 Z"/></g>
<g><path style="opacity:1" fill="#fbfcfd" d="M 150.5,300.5 C 147.833,300.5 145.167,300.5 142.5,300.5C 142.335,297.15 142.502,293.817 143,290.5C 145.37,287.961 147.87,285.628 150.5,283.5C 157.73,276.957 164.896,270.29 172,263.5C 177.146,257.006 176.646,251.173 170.5,246C 161.365,243.213 156.365,246.379 155.5,255.5C 153.833,255.5 152.167,255.5 150.5,255.5C 147.833,255.5 145.167,255.5 142.5,255.5C 142.22,248.395 144.887,242.728 150.5,238.5C 152.527,236.82 154.861,235.653 157.5,235C 162.5,234.333 167.5,234.333 172.5,235C 188.398,240.301 192.564,250.467 185,265.5C 177.989,273.677 170.489,281.344 162.5,288.5C 171.475,289.498 180.475,289.832 189.5,289.5C 189.5,293.167 189.5,296.833 189.5,300.5C 176.5,300.5 163.5,300.5 150.5,300.5 Z"/></g>
<g><path style="opacity:1" fill="#fafcff" d="M 225.5,272.5 C 223.052,271.527 220.385,271.194 217.5,271.5C 217.5,268.5 217.5,265.5 217.5,262.5C 220.385,262.806 223.052,262.473 225.5,261.5C 231.952,260.608 234.452,256.941 233,250.5C 232.535,249.069 231.701,247.903 230.5,247C 224.637,244.33 219.47,245.163 215,249.5C 214.51,250.793 214.343,252.127 214.5,253.5C 209.833,253.5 205.167,253.5 200.5,253.5C 201.21,243.948 206.21,237.781 215.5,235C 224.386,233.339 232.719,234.673 240.5,239C 247.663,246.457 248.329,254.457 242.5,263C 239.798,264.34 237.131,265.673 234.5,267C 249.047,270.597 252.88,279.097 246,292.5C 239.698,298.812 232.031,301.812 223,301.5C 216.45,301.741 210.617,299.908 205.5,296C 201.731,292.294 199.731,287.794 199.5,282.5C 204.167,282.5 208.833,282.5 213.5,282.5C 215.685,289.199 220.352,291.699 227.5,290C 235.169,286.502 236.502,281.335 231.5,274.5C 229.677,273.253 227.677,272.586 225.5,272.5 Z"/></g>
<g><path style="opacity:1" fill="#fbfdff" d="M 285.5,235.5 C 291.167,235.5 296.833,235.5 302.5,235.5C 302.171,249.677 302.504,263.677 303.5,277.5C 305.607,278.468 307.941,278.802 310.5,278.5C 310.5,281.833 310.5,285.167 310.5,288.5C 307.941,288.198 305.607,288.532 303.5,289.5C 303.5,293.167 303.5,296.833 303.5,300.5C 298.833,300.5 294.167,300.5 289.5,300.5C 289.5,296.833 289.5,293.167 289.5,289.5C 279.167,289.5 268.833,289.5 258.5,289.5C 258.334,285.486 258.501,281.486 259,277.5C 267.594,263.303 276.427,249.303 285.5,235.5 Z"/></g>
<g><path style="opacity:1" fill="#98cdff" d="M 285.5,235.5 C 291.31,234.51 297.31,234.177 303.5,234.5C 303.5,248.833 303.5,263.167 303.5,277.5C 302.504,263.677 302.171,249.677 302.5,235.5C 296.833,235.5 291.167,235.5 285.5,235.5 Z"/></g>
<g><path style="opacity:1" fill="#f7fafd" d="M 361.5,234.5 C 362.833,234.5 364.167,234.5 365.5,234.5C 365.5,238.5 365.5,242.5 365.5,246.5C 364.167,246.5 362.833,246.5 361.5,246.5C 353.167,246.5 344.833,246.5 336.5,246.5C 335.904,251.551 335.904,256.551 336.5,261.5C 342.96,257.167 349.96,256.334 357.5,259C 358.984,259.662 360.317,260.496 361.5,261.5C 372.108,273.05 372.108,284.717 361.5,296.5C 354.068,300.856 346.068,302.356 337.5,301C 328.993,298.991 323.66,293.825 321.5,285.5C 321.5,284.5 321.5,283.5 321.5,282.5C 325.833,282.5 330.167,282.5 334.5,282.5C 335.134,285.643 336.8,288.143 339.5,290C 346.101,291.879 351.268,290.046 355,284.5C 357.59,274.321 353.756,268.654 343.5,267.5C 339.466,268.025 335.8,269.359 332.5,271.5C 329.201,270.79 325.867,270.457 322.5,270.5C 323.234,258.594 324.234,246.76 325.5,235C 337.495,234.5 349.495,234.333 361.5,234.5 Z"/></g>
<g><path style="opacity:1" fill="#1589ff" d="M 150.5,283.5 C 150.5,274.167 150.5,264.833 150.5,255.5C 152.167,255.5 153.833,255.5 155.5,255.5C 156.365,246.379 161.365,243.213 170.5,246C 176.646,251.173 177.146,257.006 172,263.5C 164.896,270.29 157.73,276.957 150.5,283.5 Z"/></g>
<g><path style="opacity:1" fill="#1385f8" d="M 361.5,246.5 C 361.5,251.5 361.5,256.5 361.5,261.5C 360.317,260.496 358.984,259.662 357.5,259C 349.96,256.334 342.96,257.167 336.5,261.5C 335.904,256.551 335.904,251.551 336.5,246.5C 344.833,246.5 353.167,246.5 361.5,246.5 Z"/></g>
<g><path style="opacity:1" fill="#6fb9ff" d="M 288.5,251.5 C 288.56,250.957 288.893,250.624 289.5,250.5C 290.498,259.81 290.832,269.143 290.5,278.5C 284.31,278.823 278.31,278.49 272.5,277.5C 278.167,277.5 283.833,277.5 289.5,277.5C 289.826,268.651 289.493,259.984 288.5,251.5 Z"/></g>
<g><path style="opacity:1" fill="#1489ff" d="M 288.5,251.5 C 289.493,259.984 289.826,268.651 289.5,277.5C 283.833,277.5 278.167,277.5 272.5,277.5C 277.833,268.833 283.167,260.167 288.5,251.5 Z"/></g>
<g><path style="opacity:1" fill="#add5ff" d="M 225.5,261.5 C 223.052,262.473 220.385,262.806 217.5,262.5C 217.5,265.5 217.5,268.5 217.5,271.5C 220.385,271.194 223.052,271.527 225.5,272.5C 222.5,272.5 219.5,272.5 216.5,272.5C 216.5,268.833 216.5,265.167 216.5,261.5C 219.5,261.5 222.5,261.5 225.5,261.5 Z"/></g>
<g><path style="opacity:1" fill="#a9d4ff" d="M 303.5,277.5 C 306.167,277.5 308.833,277.5 311.5,277.5C 311.5,281.5 311.5,285.5 311.5,289.5C 308.833,289.5 306.167,289.5 303.5,289.5C 305.607,288.532 307.941,288.198 310.5,288.5C 310.5,285.167 310.5,281.833 310.5,278.5C 307.941,278.802 305.607,278.468 303.5,277.5 Z"/></g>
<g><path style="opacity:1" fill="#68b5ff" d="M 334.5,282.5 C 330.167,282.5 325.833,282.5 321.5,282.5C 321.5,283.5 321.5,284.5 321.5,285.5C 320.566,284.432 320.232,283.099 320.5,281.5C 325.363,281.181 330.03,281.514 334.5,282.5 Z"/></g>
</svg>
